<?xml version="1.0" encoding="UTF-8"?>
<svg id="Layer_1" xmlns="http://www.w3.org/2000/svg" xmlns:xlink="http://www.w3.org/1999/xlink" version="1.1" viewBox="0 0 590.75 343.68">
  <!-- Generator: Adobe Illustrator 29.3.0, SVG Export Plug-In . SVG Version: 2.1.0 Build 146)  -->
  <defs>
    <style>
      .st0 {
        fill: none;
      }

      .st1 {
        clip-path: url(#clippath);
      }
    </style>
    <clipPath id="clippath">
      <rect class="st0" x="0" width="590.75" height="343.68"/>
    </clipPath>
  </defs>
  <g class="st1">
    <path d="M375.98,138.02c-8.39-8.26-20.9-14.65-31.77-15.99-6.64-.82-13.31-1.28-19.13,1.34-2.02.91-3.06,2.17-3.3,2.7-.52,1.19-.59,3.67-.51,4.35,1.75,13.96,13.41,25.41,22.52,35.65,10.8,12.15,22.32,23.68,34.45,34.53,1.44,1.29,2.88,2.56,4.33,3.82,13.21-21.87,12.35-47.74-6.59-66.4M576.49,343.6c-31.18-3.79-62.36-7.59-93.53-11.38-7.39-.9-13.64-6.16-13.47-14.04.15-6.85,6.64-14.18,14.06-13.27,6.73.82,13.46,1.63,20.19,2.45-42.06-15.72-81.68-37.74-117.42-64.95-8.37,7.56-17.92,13.87-28.13,18.56-36.59,16.78-79.05,12.18-116.16-1.2-35.42-12.77-68.78-32.37-98.92-54.75C86.34,162.88,38.43,107.45,10.51,42.45,6.91,34.06,3.6,25.54.58,16.93-1.87,9.95,3.8,2.05,10.56.41c7.75-1.89,14.27,3,16.72,10.01,20.4,58.24,57.96,109.45,104.21,150.32,23.37,20.66,49.25,38.52,76.59,53.58,30.56,16.83,64.64,30.77,100.06,30.22,20.66-.32,40.81-7.05,56.48-19.69-12.99-11.19-25.32-23.12-36.88-35.75-12.39-13.56-25.03-27.51-31.28-45.01-6.86-19.22.27-39.53,20.18-46.66,15.67-5.61,34.78-3.6,50.01,2.72,32.37,13.41,56.15,45.58,52.27,81.23-1.59,14.61-6.92,28.36-14.9,40.48,38,28.85,81.01,51.25,126.42,65.96-9.07-12.87-18.15-25.75-27.23-38.63-4.28-6.07-.67-15.27,5.35-18.54,7.08-3.86,14.44-.66,18.73,5.43,11.83,16.79,23.66,33.57,35.49,50.36,1.48,2.1,2.96,4.2,4.44,6.3.77,1.56,1.86,2.9,3.09,4.15,3.33,4.65,6.33,9.51,9.83,14.02v.18l4.34,6.16c1.45,2.05,2.89,4.1,4.34,6.16,5.79,8.22-2.44,21.41-12.33,20.21"/>
  </g>
</svg>