<?xml version="1.0" encoding="UTF-8"?>
<svg id="Layer_1" xmlns="http://www.w3.org/2000/svg" xmlns:xlink="http://www.w3.org/1999/xlink" version="1.1" viewBox="0 0 186.66 41">
  <!-- Generator: Adobe Illustrator 29.3.0, SVG Export Plug-In . SVG Version: 2.1.0 Build 146)  -->
  <defs>
    <style>
      .st0, .st1 {
        fill: none;
      }

      .st1 {
        stroke: #c22032;
        stroke-width: 2px;
      }

      .st2 {
        fill: #fff;
      }

      .st3 {
        clip-path: url(#clippath);
      }
    </style>
    <clipPath id="clippath">
      <rect class="st0" width="186.66" height="41"/>
    </clipPath>
  </defs>
  <g class="st3">
    <g>
      <path class="st2" d="M62.17,18.03c-.65-.46-1.43-.68-2.33-.68-.77,0-1.42.14-1.97.43-.55.29-1,.67-1.35,1.16s-.62,1.04-.78,1.67-.25,1.27-.25,1.94c0,.73.08,1.42.25,2.08.17.65.43,1.22.78,1.71.35.49.81.87,1.36,1.16.55.29,1.21.43,1.98.43.56,0,1.06-.09,1.5-.28.44-.19.82-.44,1.13-.77.32-.33.57-.72.75-1.18.18-.46.29-.95.32-1.48h1.71c-.17,1.62-.73,2.88-1.67,3.78-.95.9-2.24,1.35-3.89,1.35-1,0-1.87-.17-2.61-.51-.74-.34-1.36-.81-1.85-1.41-.49-.6-.86-1.31-1.11-2.12-.25-.82-.37-1.69-.37-2.63s.13-1.82.4-2.64c.26-.82.65-1.54,1.16-2.15.51-.61,1.15-1.09,1.91-1.45.76-.35,1.64-.53,2.62-.53.67,0,1.31.09,1.91.27.6.18,1.13.44,1.6.79.47.35.86.78,1.17,1.3.31.52.52,1.12.61,1.81h-1.71c-.19-.91-.62-1.6-1.27-2.05Z"/>
      <path class="st2" d="M75.39,29.03c-.26.16-.63.23-1.1.23-.4,0-.71-.11-.94-.33s-.35-.58-.35-1.09c-.42.5-.91.87-1.47,1.09-.56.22-1.16.33-1.81.33-.42,0-.82-.05-1.2-.14-.38-.1-.71-.25-.98-.45-.28-.2-.49-.47-.66-.8s-.24-.73-.24-1.2c0-.53.09-.96.27-1.3.18-.33.42-.61.71-.82s.63-.37,1.01-.48c.38-.11.76-.2,1.16-.27.42-.08.82-.15,1.2-.19.38-.04.71-.1,1-.18s.52-.19.68-.34c.17-.15.25-.37.25-.66,0-.34-.06-.61-.19-.81s-.29-.36-.49-.47c-.2-.11-.42-.18-.67-.22s-.49-.05-.73-.05c-.65,0-1.19.12-1.62.37-.43.25-.67.71-.7,1.39h-1.53c.02-.58.14-1.06.36-1.46.22-.4.5-.72.86-.96s.77-.42,1.23-.53c.46-.11.96-.16,1.49-.16.42,0,.84.03,1.25.09.41.06.79.18,1.12.37.34.19.61.45.81.78.2.33.31.77.31,1.31v4.78c0,.36.02.62.06.79s.18.25.42.25c.13,0,.29-.02.47-.07v1.19ZM72.91,24.26c-.19.14-.44.25-.76.31-.31.07-.64.12-.98.16-.34.04-.69.09-1.03.14-.35.05-.66.14-.94.26-.28.12-.5.29-.68.51-.17.22-.26.52-.26.9,0,.25.05.46.15.64.1.17.23.31.4.42s.35.18.57.23c.22.05.44.07.68.07.5,0,.94-.07,1.3-.21.36-.14.65-.31.88-.52.23-.21.4-.44.5-.68.11-.25.16-.48.16-.69v-1.56Z"/>
      <path class="st2" d="M78.4,19.76v1.26h.04c.25-.52.65-.89,1.19-1.12s1.13-.35,1.78-.35c.72,0,1.35.13,1.88.4.53.26.98.62,1.33,1.07.35.45.62.97.8,1.56.18.59.27,1.21.27,1.87s-.09,1.28-.26,1.87c-.17.59-.44,1.1-.79,1.54-.35.44-.8.78-1.33,1.04-.53.25-1.16.38-1.86.38-.23,0-.48-.02-.76-.07-.28-.05-.56-.13-.84-.23-.28-.11-.54-.25-.78-.44-.25-.19-.45-.42-.62-.69h-.04v4.79h-1.53v-12.85h1.53ZM83.9,23.07c-.11-.41-.29-.78-.52-1.11-.23-.32-.53-.58-.9-.77-.37-.19-.79-.29-1.29-.29s-.95.1-1.31.31-.65.47-.88.8c-.23.33-.39.71-.5,1.12-.1.42-.15.85-.15,1.28,0,.46.05.9.16,1.32.11.43.28.8.51,1.12s.54.58.91.78c.37.2.82.3,1.35.3s.97-.1,1.32-.31c.35-.2.64-.47.85-.81s.37-.72.47-1.15c.1-.43.14-.88.14-1.33,0-.43-.06-.85-.17-1.27Z"/>
      <path class="st2" d="M87.58,18.09v-1.87h1.53v1.87h-1.53ZM89.11,19.76v9.31h-1.53v-9.31h1.53Z"/>
      <path class="st2" d="M95.46,19.76v1.35h-1.85v5.78c0,.18.02.32.04.43.03.11.09.19.17.25.08.06.2.1.35.12s.35.03.59.03h.7v1.35h-1.17c-.4,0-.74-.03-1.02-.08s-.51-.15-.68-.3c-.17-.14-.3-.35-.39-.61-.08-.26-.13-.61-.13-1.04v-5.92h-1.58v-1.35h1.58v-2.79h1.53v2.79h1.85Z"/>
      <path class="st2" d="M103.42,29.07v-1.48h-.04c-.32.58-.74,1-1.24,1.27-.5.27-1.1.41-1.78.41-.61,0-1.12-.08-1.53-.24-.41-.16-.74-.39-.99-.69-.25-.3-.43-.66-.53-1.07-.1-.41-.15-.87-.15-1.38v-6.12h1.53v6.3c0,.58.17,1.03.5,1.37s.8.5,1.39.5c.47,0,.87-.07,1.22-.22.34-.14.63-.35.85-.61.23-.26.4-.57.51-.93.11-.35.17-.74.17-1.16v-5.26h1.53v9.31h-1.44Z"/>
      <path class="st2" d="M108.78,16.22v12.85h-1.53v-12.85h1.53Z"/>
      <path class="st2" d="M110.94,22.51c.19-.59.48-1.11.86-1.55.38-.44.86-.78,1.42-1.03.56-.25,1.21-.38,1.94-.38s1.4.13,1.95.38c.56.25,1.03.6,1.41,1.03.38.44.67.95.86,1.55.19.59.29,1.23.29,1.92s-.1,1.32-.29,1.91c-.19.59-.48,1.1-.86,1.54-.38.44-.86.78-1.41,1.03-.56.25-1.21.37-1.95.37s-1.38-.12-1.94-.37c-.56-.25-1.04-.59-1.42-1.03-.38-.44-.67-.95-.86-1.54-.19-.59-.29-1.22-.29-1.91s.1-1.32.29-1.92ZM112.5,25.93c.15.44.36.8.62,1.1.26.29.57.52.93.67.35.16.73.23,1.12.23s.77-.08,1.12-.23c.35-.16.66-.38.93-.67.26-.29.47-.66.62-1.1.15-.44.23-.94.23-1.5s-.08-1.07-.23-1.5c-.15-.44-.36-.81-.62-1.11-.26-.3-.57-.53-.93-.68-.35-.16-.73-.23-1.12-.23s-.77.08-1.12.23c-.35.16-.66.38-.93.68-.26.3-.47.67-.62,1.11-.15.44-.23.94-.23,1.5s.07,1.06.23,1.5Z"/>
      <path class="st2" d="M134.74,29.03c-.26.16-.63.23-1.1.23-.4,0-.71-.11-.94-.33s-.35-.58-.35-1.09c-.42.5-.91.87-1.47,1.09-.56.22-1.16.33-1.81.33-.42,0-.82-.05-1.2-.14-.38-.1-.71-.25-.98-.45-.28-.2-.49-.47-.66-.8s-.24-.73-.24-1.2c0-.53.09-.96.27-1.3.18-.33.42-.61.71-.82s.63-.37,1.01-.48c.38-.11.76-.2,1.16-.27.42-.08.82-.15,1.2-.19.38-.04.71-.1,1-.18s.52-.19.68-.34c.17-.15.25-.37.25-.66,0-.34-.06-.61-.19-.81s-.29-.36-.49-.47c-.2-.11-.42-.18-.67-.22s-.49-.05-.73-.05c-.65,0-1.19.12-1.62.37-.43.25-.67.71-.7,1.39h-1.53c.02-.58.14-1.06.36-1.46.22-.4.5-.72.86-.96s.77-.42,1.23-.53c.46-.11.96-.16,1.49-.16.42,0,.84.03,1.25.09.41.06.79.18,1.12.37.34.19.61.45.81.78.2.33.31.77.31,1.31v4.78c0,.36.02.62.06.79s.18.25.42.25c.13,0,.29-.02.47-.07v1.19ZM132.25,24.26c-.19.14-.44.25-.76.31-.31.07-.64.12-.98.16-.34.04-.69.09-1.03.14-.35.05-.66.14-.94.26-.28.12-.5.29-.68.51-.17.22-.26.52-.26.9,0,.25.05.46.15.64.1.17.23.31.4.42s.35.18.57.23c.22.05.44.07.68.07.5,0,.94-.07,1.3-.21.36-.14.65-.31.88-.52.23-.21.4-.44.5-.68.11-.25.16-.48.16-.69v-1.56Z"/>
      <path class="st2" d="M137.6,19.76v1.48h.04c.64-1.13,1.64-1.69,3.02-1.69.61,0,1.12.08,1.53.25.41.17.74.4.99.7.25.3.43.66.53,1.07.1.41.15.87.15,1.38v6.12h-1.53v-6.3c0-.58-.17-1.03-.5-1.37s-.8-.5-1.39-.5c-.47,0-.87.07-1.21.22-.34.14-.63.35-.85.61-.23.26-.4.57-.51.93-.11.35-.17.74-.17,1.16v5.26h-1.53v-9.31h1.44Z"/>
      <path class="st2" d="M150.14,19.76v1.35h-1.85v5.78c0,.18.02.32.04.43.03.11.09.19.17.25.08.06.2.1.35.12s.35.03.59.03h.7v1.35h-1.17c-.4,0-.74-.03-1.02-.08s-.51-.15-.68-.3c-.17-.14-.3-.35-.39-.61-.08-.26-.13-.61-.13-1.04v-5.92h-1.58v-1.35h1.58v-2.79h1.53v2.79h1.85Z"/>
      <path class="st2" d="M158.42,28.47c-.7.53-1.57.79-2.63.79-.74,0-1.39-.12-1.94-.36-.55-.24-1-.58-1.38-1.01s-.65-.95-.84-1.55c-.19-.6-.29-1.25-.31-1.96,0-.71.11-1.36.32-1.94.22-.59.52-1.1.91-1.53.39-.43.85-.77,1.39-1.01.53-.24,1.12-.36,1.75-.36.83,0,1.51.17,2.06.51.55.34.98.78,1.31,1.3.33.53.56,1.1.68,1.73s.18,1.22.15,1.78h-6.97c-.01.41.04.8.14,1.16.11.37.28.69.52.97.24.28.55.51.92.67.37.17.81.25,1.31.25.65,0,1.18-.15,1.59-.45.41-.3.69-.76.82-1.37h1.51c-.2,1.04-.65,1.83-1.35,2.36ZM158.05,22.5c-.14-.32-.32-.6-.56-.84-.23-.23-.51-.42-.83-.56s-.67-.21-1.05-.21-.75.07-1.07.21-.59.33-.82.57c-.23.24-.41.52-.54.84-.13.32-.21.66-.23,1.02h5.35c-.02-.36-.1-.7-.24-1.03Z"/>
      <path class="st2" d="M162.89,19.76v1.96h.04c.37-.76.83-1.31,1.37-1.67.54-.36,1.22-.53,2.05-.5v1.62c-.61,0-1.13.08-1.57.25-.43.17-.78.41-1.04.74s-.46.72-.58,1.18c-.12.46-.18.99-.18,1.59v4.14h-1.53v-9.31h1.44Z"/>
      <path class="st2" d="M167.58,18.09v-1.87h1.53v1.87h-1.53ZM169.12,19.76v9.31h-1.53v-9.31h1.53Z"/>
      <path class="st2" d="M171.28,22.51c.19-.59.48-1.11.86-1.55.38-.44.86-.78,1.42-1.03.56-.25,1.21-.38,1.94-.38s1.4.13,1.95.38c.56.25,1.03.6,1.41,1.03.38.44.67.95.86,1.55.19.59.29,1.23.29,1.92s-.1,1.32-.29,1.91c-.19.59-.48,1.1-.86,1.54-.38.44-.86.78-1.41,1.03-.56.25-1.21.37-1.95.37s-1.38-.12-1.94-.37-1.04-.59-1.42-1.03c-.38-.44-.67-.95-.86-1.54-.19-.59-.29-1.22-.29-1.91s.1-1.32.29-1.92ZM172.83,25.93c.15.44.36.8.62,1.1.26.29.57.52.93.67.35.16.73.23,1.12.23s.77-.08,1.12-.23c.35-.16.66-.38.93-.67s.47-.66.62-1.1c.15-.44.22-.94.22-1.5s-.08-1.07-.22-1.5c-.15-.44-.36-.81-.62-1.11s-.57-.53-.93-.68c-.35-.16-.73-.23-1.12-.23s-.77.08-1.12.23c-.35.16-.66.38-.93.68-.26.3-.47.67-.62,1.11-.15.44-.23.94-.23,1.5s.08,1.06.23,1.5Z"/>
      <path class="st2" d="M183.21,19.76v1.96h.04c.37-.76.83-1.31,1.37-1.67.54-.36,1.22-.53,2.05-.5v1.62c-.61,0-1.13.08-1.57.25-.43.17-.78.41-1.04.74-.26.32-.46.72-.58,1.18-.12.46-.18.99-.18,1.59v4.14h-1.53v-9.31h1.44Z"/>
    </g>
    <path class="st2" d="M20.5,41c11.32,0,20.5-9.18,20.5-20.5S31.82,0,20.5,0,0,9.18,0,20.5s9.18,20.5,20.5,20.5"/>
  </g>
  <line class="st1" x1="29.5" y1="20.5" x2="12.5" y2="20.5"/>
  <polyline class="st1" points="21.13 11.58 12.21 20.5 21.13 29.42"/>
</svg>