<?xml version="1.0" encoding="UTF-8"?>
<svg id="Layer_1" xmlns="http://www.w3.org/2000/svg" xmlns:xlink="http://www.w3.org/1999/xlink" version="1.1" viewBox="0 0 354.93 55.5">
  <!-- Generator: Adobe Illustrator 29.3.0, SVG Export Plug-In . SVG Version: 2.1.0 Build 146)  -->
  <defs>
    <style>
      .st0, .st1 {
        fill: none;
      }

      .st1 {
        stroke: #c22032;
        stroke-width: 2px;
      }

      .st2 {
        fill: #fff;
      }

      .st3 {
        fill: #c22032;
      }

      .st4 {
        clip-path: url(#clippath);
      }
    </style>
    <clipPath id="clippath">
      <rect class="st0" width="354.93" height="55.5"/>
    </clipPath>
  </defs>
  <g class="st4">
    <rect class="st3" width="340.36" height="55.5" rx="9" ry="9"/>
    <path class="st2" d="M63.2,27.75c0-11.32-9.18-20.5-20.5-20.5s-20.5,9.18-20.5,20.5,9.18,20.5,20.5,20.5,20.5-9.18,20.5-20.5"/>
  </g>
  <line class="st1" x1="42.7" y1="16.5" x2="42.7" y2="33.5"/>
  <polyline class="st1" points="33.78 24.87 42.7 33.79 51.62 24.87"/>
  <line class="st1" x1="32.7" y1="38" x2="52.7" y2="38"/>
  <g>
    <path class="st2" d="M82.62,23.47v12.85h-1.71v-12.85h1.71Z"/>
    <path class="st2" d="M86.69,27.01v1.48h.04c.64-1.13,1.64-1.69,3.02-1.69.61,0,1.12.08,1.53.25.41.17.74.4.99.7.25.3.43.66.53,1.07.1.41.15.87.15,1.38v6.12h-1.53v-6.3c0-.58-.17-1.03-.5-1.37s-.8-.5-1.39-.5c-.47,0-.87.07-1.21.22-.34.14-.63.35-.85.61-.23.26-.4.57-.51.93-.11.35-.17.74-.17,1.16v5.26h-1.53v-9.31h1.44Z"/>
    <path class="st2" d="M94.32,28.36v-1.35h1.57v-1.39c0-.76.22-1.33.66-1.72.44-.39,1.08-.58,1.92-.58.14,0,.31.01.5.04s.35.06.5.11v1.33c-.13-.05-.28-.08-.43-.1-.16-.02-.3-.03-.43-.03-.37,0-.66.07-.86.22-.2.14-.31.42-.31.83v1.3h1.8v1.35h-1.8v7.96h-1.53v-7.96h-1.57Z"/>
    <path class="st2" d="M100.37,29.76c.19-.59.48-1.11.86-1.55.38-.44.86-.78,1.42-1.03.56-.25,1.21-.38,1.94-.38s1.4.13,1.95.38c.56.25,1.03.6,1.41,1.03.38.44.67.95.86,1.55.19.59.29,1.23.29,1.92s-.1,1.32-.29,1.91c-.19.59-.48,1.1-.86,1.54-.38.44-.86.78-1.41,1.03-.56.25-1.21.37-1.95.37s-1.38-.12-1.94-.37c-.56-.25-1.04-.59-1.42-1.03-.38-.44-.67-.95-.86-1.54-.19-.59-.29-1.22-.29-1.91s.1-1.32.29-1.92ZM101.92,33.18c.15.44.36.8.62,1.1.26.29.57.52.93.67.35.16.73.23,1.12.23s.77-.08,1.12-.23c.35-.16.66-.38.93-.67.26-.29.47-.66.62-1.1.15-.44.23-.94.23-1.5s-.08-1.07-.23-1.5c-.15-.44-.36-.81-.62-1.11-.26-.3-.57-.53-.93-.68-.35-.16-.73-.23-1.12-.23s-.77.08-1.12.23c-.35.16-.66.38-.93.68-.26.3-.47.67-.62,1.11-.15.44-.23.94-.23,1.5s.07,1.06.23,1.5Z"/>
    <path class="st2" d="M112.3,27.01v1.96h.04c.37-.76.83-1.31,1.37-1.67.54-.36,1.22-.53,2.05-.5v1.62c-.61,0-1.13.08-1.57.25-.43.17-.78.41-1.04.74-.26.32-.46.72-.58,1.18-.12.46-.18.99-.18,1.59v4.14h-1.53v-9.31h1.44Z"/>
    <path class="st2" d="M118.35,27.01v1.37h.04c.7-1.06,1.7-1.58,3.01-1.58.58,0,1.1.12,1.57.36.47.24.8.65.99,1.22.31-.5.72-.89,1.23-1.17.51-.28,1.07-.41,1.68-.41.47,0,.89.05,1.27.15.38.1.7.26.97.48.27.22.48.49.63.84.15.34.23.75.23,1.23v6.82h-1.53v-6.1c0-.29-.02-.56-.07-.81-.05-.25-.14-.47-.27-.66-.13-.19-.31-.33-.55-.44-.23-.11-.54-.16-.91-.16-.76,0-1.35.22-1.78.65-.43.43-.65,1.01-.65,1.73v5.8h-1.53v-6.1c0-.3-.03-.58-.08-.83-.05-.25-.15-.47-.28-.66-.13-.19-.31-.33-.53-.43-.22-.1-.51-.15-.85-.15-.44,0-.83.09-1.14.27-.32.18-.58.4-.77.65-.2.25-.34.51-.43.78-.09.27-.13.5-.13.67v5.8h-1.53v-9.31h1.44Z"/>
    <path class="st2" d="M138.85,35.72c-.7.53-1.57.79-2.63.79-.74,0-1.39-.12-1.94-.36-.55-.24-1-.58-1.38-1.01s-.65-.95-.84-1.55c-.19-.6-.29-1.25-.31-1.96,0-.71.11-1.36.32-1.94.22-.59.52-1.1.91-1.53.39-.43.85-.77,1.39-1.01.53-.24,1.12-.36,1.75-.36.83,0,1.51.17,2.06.51.55.34.98.78,1.31,1.3.33.53.56,1.1.68,1.73s.18,1.22.15,1.78h-6.97c-.01.41.04.8.14,1.16.11.37.28.69.52.97.24.28.55.51.92.67.37.17.81.25,1.31.25.65,0,1.18-.15,1.59-.45.41-.3.69-.76.82-1.37h1.51c-.2,1.04-.65,1.83-1.35,2.36ZM138.48,29.75c-.14-.32-.32-.6-.56-.84-.23-.23-.51-.42-.83-.56s-.67-.21-1.05-.21-.75.07-1.07.21-.59.33-.82.57c-.23.24-.41.52-.54.84-.13.32-.21.66-.23,1.02h5.35c-.02-.36-.1-.7-.24-1.03Z"/>
    <path class="st2" d="M152.57,23.47l5.02,12.85h-1.89l-1.4-3.87h-5.44l-1.44,3.87h-1.75l5-12.85h1.89ZM153.76,31.01l-2.14-5.99h-.04l-2.18,5.99h4.36Z"/>
    <path class="st2" d="M160.04,27.01v1.48h.04c.64-1.13,1.64-1.69,3.02-1.69.61,0,1.12.08,1.53.25.41.17.74.4.99.7.25.3.43.66.53,1.07.1.41.15.87.15,1.38v6.12h-1.53v-6.3c0-.58-.17-1.03-.5-1.37s-.8-.5-1.39-.5c-.47,0-.87.07-1.21.22-.34.14-.63.35-.85.61-.23.26-.4.57-.51.93-.11.35-.17.74-.17,1.16v5.26h-1.53v-9.31h1.44Z"/>
    <path class="st2" d="M174.87,36.32v-1.48h-.04c-.32.58-.74,1-1.24,1.27-.5.27-1.1.41-1.78.41-.61,0-1.12-.08-1.53-.24-.41-.16-.74-.39-.99-.69-.25-.3-.43-.66-.53-1.07-.1-.41-.15-.87-.15-1.38v-6.12h1.53v6.3c0,.58.17,1.03.5,1.37s.8.5,1.39.5c.47,0,.87-.07,1.22-.22.34-.14.63-.35.85-.61.23-.26.4-.57.51-.93.11-.35.17-.74.17-1.16v-5.26h1.53v9.31h-1.44Z"/>
    <path class="st2" d="M186.86,36.28c-.26.16-.63.23-1.1.23-.4,0-.71-.11-.94-.33-.23-.22-.35-.58-.35-1.09-.42.5-.91.87-1.47,1.09s-1.16.33-1.81.33c-.42,0-.82-.05-1.2-.14-.38-.1-.71-.25-.98-.45-.28-.2-.49-.47-.66-.8s-.24-.73-.24-1.2c0-.53.09-.96.27-1.3.18-.33.42-.61.71-.82s.63-.37,1.01-.48c.38-.11.76-.2,1.16-.27.42-.08.82-.15,1.2-.19.38-.04.71-.1,1-.18s.52-.19.68-.34c.17-.15.25-.37.25-.66,0-.34-.06-.61-.19-.81s-.29-.36-.49-.47c-.2-.11-.42-.18-.67-.22s-.49-.05-.73-.05c-.65,0-1.19.12-1.62.37s-.67.71-.7,1.39h-1.53c.02-.58.14-1.06.36-1.46.22-.4.5-.72.86-.96.36-.25.77-.42,1.23-.53.46-.11.96-.16,1.49-.16.42,0,.84.03,1.25.09.41.06.79.18,1.12.37s.61.45.81.78c.2.33.31.77.31,1.31v4.78c0,.36.02.62.06.79s.18.25.42.25c.13,0,.29-.02.47-.07v1.19ZM184.37,31.51c-.19.14-.44.25-.76.31-.31.07-.64.12-.98.16-.34.04-.69.09-1.03.14-.35.05-.66.14-.94.26-.28.12-.5.29-.67.51-.17.22-.26.52-.26.9,0,.25.05.46.15.64.1.17.23.31.4.42s.35.18.57.23c.22.05.44.07.68.07.5,0,.94-.07,1.3-.21.36-.14.65-.31.88-.52s.4-.44.5-.68c.11-.25.16-.48.16-.69v-1.56Z"/>
    <path class="st2" d="M189.9,23.47v12.85h-1.53v-12.85h1.53Z"/>
    <path class="st2" d="M199.31,23.47v12.85h-1.71v-12.85h1.71Z"/>
    <path class="st2" d="M203.38,27.01v1.48h.04c.64-1.13,1.64-1.69,3.02-1.69.61,0,1.12.08,1.53.25.41.17.74.4.99.7.25.3.43.66.53,1.07s.15.87.15,1.38v6.12h-1.53v-6.3c0-.58-.17-1.03-.5-1.37s-.8-.5-1.39-.5c-.47,0-.87.07-1.21.22-.34.14-.63.35-.86.61-.23.26-.4.57-.51.93-.11.35-.17.74-.17,1.16v5.26h-1.53v-9.31h1.44Z"/>
    <path class="st2" d="M215.93,27.01v1.35h-1.85v5.78c0,.18.02.32.04.43.03.11.09.19.17.25.08.06.2.1.35.12.15.02.34.03.58.03h.7v1.35h-1.17c-.4,0-.74-.03-1.02-.08-.28-.05-.51-.15-.68-.3-.17-.14-.3-.35-.39-.61-.08-.26-.13-.61-.13-1.04v-5.92h-1.58v-1.35h1.58v-2.79h1.53v2.79h1.85Z"/>
    <path class="st2" d="M224.21,35.72c-.7.53-1.57.79-2.63.79-.74,0-1.39-.12-1.94-.36-.55-.24-1-.58-1.38-1.01s-.65-.95-.84-1.55c-.19-.6-.29-1.25-.31-1.96,0-.71.11-1.36.32-1.94.22-.59.52-1.1.91-1.53.39-.43.85-.77,1.39-1.01.53-.24,1.12-.36,1.75-.36.83,0,1.51.17,2.06.51s.98.78,1.31,1.3c.33.53.56,1.1.68,1.73s.18,1.22.15,1.78h-6.97c-.01.41.04.8.14,1.16.11.37.28.69.52.97.24.28.55.51.92.67.37.17.81.25,1.31.25.65,0,1.18-.15,1.59-.45.41-.3.69-.76.82-1.37h1.51c-.2,1.04-.65,1.83-1.35,2.36ZM223.84,29.75c-.14-.32-.32-.6-.56-.84-.23-.23-.51-.42-.83-.56-.32-.14-.67-.21-1.05-.21s-.75.07-1.07.21c-.32.14-.59.33-.82.57-.23.24-.41.52-.54.84-.13.32-.21.66-.23,1.02h5.35c-.02-.36-.11-.7-.24-1.03Z"/>
    <path class="st2" d="M234.27,38.95c-.7.76-1.79,1.13-3.28,1.13-.43,0-.87-.05-1.32-.14-.45-.1-.86-.25-1.22-.47-.37-.22-.67-.5-.91-.85-.24-.35-.37-.77-.4-1.28h1.53c.01.28.1.51.26.7.16.19.36.35.59.47.23.12.49.21.76.26s.54.08.79.08c.5,0,.93-.09,1.28-.26.35-.17.64-.41.86-.72.23-.31.39-.67.5-1.11.1-.43.15-.91.15-1.42v-.61h-.04c-.26.58-.66,1-1.2,1.27-.53.27-1.1.41-1.7.41-.7,0-1.3-.13-1.82-.38-.52-.25-.95-.59-1.3-1.02-.35-.43-.61-.92-.78-1.49s-.26-1.17-.26-1.81c0-.55.07-1.12.22-1.7s.38-1.11.72-1.58c.34-.47.78-.86,1.33-1.17.55-.31,1.23-.46,2.03-.46.59,0,1.13.13,1.62.39s.88.64,1.15,1.16h.02v-1.33h1.44v8.51c0,1.52-.35,2.66-1.04,3.42ZM232.31,34.76c.35-.21.64-.49.85-.83s.38-.73.48-1.16c.1-.43.15-.86.15-1.3,0-.41-.05-.81-.14-1.21-.1-.4-.25-.75-.46-1.07-.21-.32-.48-.57-.82-.76-.34-.19-.74-.29-1.22-.29s-.91.09-1.26.28c-.35.19-.63.43-.86.75-.22.31-.38.67-.49,1.08-.1.41-.15.83-.15,1.28,0,.42.04.84.13,1.26.08.42.23.8.43,1.14s.47.62.81.83c.33.21.76.31,1.26.31s.93-.1,1.29-.31Z"/>
    <path class="st2" d="M239,27.01v1.96h.04c.37-.76.83-1.31,1.37-1.67.54-.36,1.22-.53,2.05-.5v1.62c-.61,0-1.13.08-1.57.25-.43.17-.78.41-1.04.74s-.46.72-.58,1.18c-.12.46-.18.99-.18,1.59v4.14h-1.53v-9.31h1.44Z"/>
    <path class="st2" d="M251.85,36.28c-.26.16-.63.23-1.1.23-.4,0-.71-.11-.95-.33-.23-.22-.35-.58-.35-1.09-.42.5-.91.87-1.47,1.09-.56.22-1.16.33-1.81.33-.42,0-.82-.05-1.2-.14-.38-.1-.71-.25-.98-.45-.28-.2-.5-.47-.66-.8s-.24-.73-.24-1.2c0-.53.09-.96.27-1.3.18-.33.42-.61.71-.82s.63-.37,1.01-.48c.38-.11.76-.2,1.16-.27.42-.08.82-.15,1.2-.19.38-.04.71-.1,1-.18s.52-.19.68-.34.25-.37.25-.66c0-.34-.06-.61-.19-.81s-.29-.36-.49-.47c-.2-.11-.42-.18-.67-.22s-.49-.05-.73-.05c-.65,0-1.19.12-1.62.37-.43.25-.67.71-.7,1.39h-1.53c.02-.58.14-1.06.36-1.46.22-.4.5-.72.86-.96.36-.25.77-.42,1.23-.53.46-.11.96-.16,1.49-.16.42,0,.84.03,1.25.09.41.06.79.18,1.12.37.33.19.61.45.81.78.2.33.31.77.31,1.31v4.78c0,.36.02.62.06.79s.18.25.42.25c.13,0,.29-.02.47-.07v1.19ZM249.37,31.51c-.19.14-.44.25-.76.31-.31.07-.64.12-.98.16s-.69.09-1.04.14-.66.14-.94.26c-.28.12-.5.29-.68.51-.17.22-.26.52-.26.9,0,.25.05.46.15.64.1.17.23.31.4.42s.35.18.57.23.44.07.68.07c.5,0,.94-.07,1.3-.21.36-.14.65-.31.88-.52.23-.21.4-.44.5-.68.11-.25.16-.48.16-.69v-1.56Z"/>
    <path class="st2" d="M260.06,36.32v-1.26h-.04c-.25.52-.65.89-1.19,1.12-.54.23-1.13.34-1.78.34-.72,0-1.35-.13-1.88-.4-.53-.26-.98-.62-1.33-1.06-.35-.44-.62-.96-.8-1.55-.18-.59-.27-1.21-.27-1.87s.09-1.28.26-1.87.44-1.1.79-1.54c.35-.44.8-.79,1.33-1.04s1.16-.39,1.86-.39c.24,0,.5.02.77.07.28.05.55.13.83.24s.54.26.78.45c.25.19.45.42.62.69h.04v-4.79h1.53v12.85h-1.53ZM254.56,33.02c.11.41.29.78.52,1.11.23.32.53.58.9.77s.79.29,1.29.29.95-.1,1.31-.31c.36-.2.65-.47.88-.8.23-.33.39-.71.49-1.12.1-.42.15-.85.15-1.28,0-.46-.05-.9-.16-1.32-.11-.43-.28-.8-.51-1.12-.23-.32-.54-.58-.91-.78s-.82-.3-1.35-.3-.95.1-1.31.31-.65.47-.86.81c-.22.34-.37.72-.47,1.15-.1.43-.14.88-.14,1.33,0,.43.06.86.17,1.27Z"/>
    <path class="st2" d="M263.73,29.76c.19-.59.48-1.11.86-1.55.38-.44.86-.78,1.42-1.03.56-.25,1.21-.38,1.94-.38s1.4.13,1.95.38c.56.25,1.03.6,1.41,1.03.38.44.67.95.86,1.55.19.59.29,1.23.29,1.92s-.1,1.32-.29,1.91c-.19.59-.48,1.1-.86,1.54-.38.44-.86.78-1.41,1.03s-1.21.37-1.95.37-1.38-.12-1.94-.37c-.56-.25-1.04-.59-1.42-1.03-.38-.44-.67-.95-.86-1.54-.19-.59-.29-1.22-.29-1.91s.1-1.32.29-1.92ZM265.29,33.18c.15.44.36.8.62,1.1s.57.52.93.67c.35.16.73.23,1.12.23s.77-.08,1.12-.23c.35-.16.66-.38.93-.67.26-.29.47-.66.62-1.1.15-.44.23-.94.23-1.5s-.08-1.07-.23-1.5c-.15-.44-.36-.81-.62-1.11-.26-.3-.57-.53-.93-.68-.35-.16-.73-.23-1.12-.23s-.77.08-1.12.23c-.35.16-.66.38-.93.68s-.47.67-.62,1.11c-.15.44-.22.94-.22,1.5s.07,1.06.22,1.5Z"/>
    <path class="st2" d="M279.12,26.27c.17-.55.43-1.03.78-1.43.35-.4.79-.72,1.32-.95.53-.23,1.13-.34,1.8-.34.55,0,1.07.08,1.56.24.49.16.91.4,1.27.7.36.31.64.69.85,1.14s.32.98.32,1.58c0,.56-.09,1.06-.26,1.49-.17.43-.4.82-.69,1.16-.29.34-.62.65-.99.93s-.76.54-1.15.79c-.4.24-.79.48-1.19.71-.4.23-.76.48-1.09.75s-.61.55-.85.85c-.23.31-.39.66-.46,1.05h6.55v1.35h-8.33c.06-.76.19-1.4.4-1.93.21-.53.48-1,.8-1.4.32-.4.69-.74,1.1-1.04s.83-.58,1.28-.85c.54-.34,1.01-.65,1.42-.93.41-.28.75-.57,1.02-.85.27-.29.47-.6.61-.94.14-.33.21-.73.21-1.17,0-.35-.07-.66-.2-.94s-.31-.53-.53-.73c-.22-.2-.48-.36-.78-.47s-.62-.16-.95-.16c-.44,0-.83.09-1.14.28-.32.19-.58.43-.78.73-.2.3-.35.64-.44,1.02s-.13.76-.12,1.14h-1.53c-.04-.65.03-1.25.2-1.8Z"/>
    <path class="st2" d="M288.93,28.6c.02-.5.08-1,.18-1.48.1-.48.23-.94.41-1.37.18-.43.43-.81.74-1.13.31-.32.71-.58,1.18-.77.47-.19,1.04-.29,1.7-.29s1.23.1,1.7.29c.47.19.87.45,1.18.77.31.32.56.7.74,1.13.18.43.32.89.41,1.37.1.48.16.97.18,1.48.02.5.04.99.04,1.46s-.01.95-.04,1.46c-.02.5-.08,1-.18,1.48-.1.48-.23.93-.41,1.36s-.43.8-.74,1.12c-.31.32-.7.58-1.17.76-.47.19-1.04.28-1.71.28s-1.23-.09-1.7-.28c-.47-.19-.87-.44-1.18-.76-.31-.32-.56-.7-.74-1.12-.18-.43-.32-.88-.41-1.36-.1-.48-.16-.97-.18-1.48s-.04-.99-.04-1.46.01-.95.04-1.46ZM290.56,31.65c.03.59.13,1.15.29,1.67.16.52.42.96.78,1.32.36.36.86.54,1.51.54s1.15-.18,1.51-.54c.36-.36.62-.8.78-1.32.16-.52.26-1.08.29-1.67.03-.59.04-1.13.04-1.61,0-.31,0-.66,0-1.04s-.04-.76-.09-1.13-.13-.75-.23-1.11c-.1-.36-.25-.68-.45-.95-.2-.27-.45-.49-.75-.66-.3-.17-.67-.25-1.1-.25s-.8.08-1.1.25-.55.39-.75.66c-.2.27-.35.58-.45.95-.1.36-.18.73-.23,1.11-.05.38-.08.76-.09,1.13,0,.38,0,.72,0,1.04,0,.48.02,1.02.04,1.61Z"/>
    <path class="st2" d="M299.14,26.27c.17-.55.43-1.03.78-1.43.35-.4.79-.72,1.32-.95s1.13-.34,1.8-.34c.55,0,1.07.08,1.56.24.49.16.91.4,1.27.7.36.31.64.69.86,1.14.21.46.31.98.31,1.58,0,.56-.09,1.06-.26,1.49-.17.43-.41.82-.69,1.16-.29.34-.62.65-.99.93-.37.28-.76.54-1.15.79-.4.24-.79.48-1.19.71-.4.23-.76.48-1.09.75s-.61.55-.85.85c-.23.31-.39.66-.46,1.05h6.55v1.35h-8.33c.06-.76.2-1.4.41-1.93.21-.53.48-1,.8-1.4.32-.4.69-.74,1.1-1.04.41-.3.83-.58,1.28-.85.54-.34,1.01-.65,1.42-.93.41-.28.75-.57,1.02-.85.27-.29.47-.6.61-.94.14-.33.21-.73.21-1.17,0-.35-.07-.66-.2-.94-.13-.28-.31-.53-.53-.73-.22-.2-.48-.36-.78-.47s-.62-.16-.95-.16c-.44,0-.83.09-1.14.28-.32.19-.58.43-.78.73-.2.3-.35.64-.44,1.02s-.13.76-.12,1.14h-1.53c-.04-.65.03-1.25.2-1.8Z"/>
    <path class="st2" d="M317.43,31.98v1.35h-1.73v2.99h-1.44v-2.99h-5.6v-1.48l5.81-8.3h1.22v8.42h1.73ZM314.26,25.73h-.04l-4.25,6.25h4.28v-6.25Z"/>
  </g>
</svg>