<?xml version="1.0" encoding="UTF-8"?>
<svg id="Layer_1" xmlns="http://www.w3.org/2000/svg" xmlns:xlink="http://www.w3.org/1999/xlink" version="1.1" viewBox="0 0 141.81 36.93">
  <!-- Generator: Adobe Illustrator 29.3.0, SVG Export Plug-In . SVG Version: 2.1.0 Build 146)  -->
  <defs>
    <style>
      .st0, .st1 {
        fill: none;
      }

      .st1 {
        stroke: #c22032;
        stroke-width: 1.48px;
      }

      .st2 {
        clip-path: url(#clippath-1);
      }

      .st3 {
        fill: #fff;
      }

      .st4 {
        fill: #c22032;
      }

      .st5 {
        clip-path: url(#clippath);
      }
    </style>
    <clipPath id="clippath">
      <rect class="st0" width="141.81" height="36.93"/>
    </clipPath>
    <clipPath id="clippath-1">
      <rect class="st0" width="141.81" height="36.93"/>
    </clipPath>
  </defs>
  <g class="st5">
    <rect class="st4" width="141.81" height="36.93" rx="9" ry="9"/>
  </g>
  <g>
    <path class="st3" d="M49.78,15.3c1.46,0,2.59.37,3.38,1.12.79.74,1.18,1.88,1.18,3.4,0,.8-.09,1.5-.27,2.12-.18.62-.45,1.13-.82,1.56-.37.42-.85.74-1.42.96s-1.26.33-2.05.33h-3.26v-9.49h3.26ZM49.89,23.73c.14,0,.32-.01.53-.03.21-.02.44-.08.68-.16.24-.08.48-.21.71-.37.23-.16.45-.38.63-.65.19-.27.34-.62.46-1.03s.18-.91.18-1.5-.06-1.08-.17-1.52-.29-.83-.54-1.14-.58-.55-.98-.72-.89-.25-1.48-.25h-2.13v7.37h2.1Z"/>
    <path class="st3" d="M55.54,19.95c.14-.44.35-.82.64-1.14.28-.32.63-.58,1.05-.76.42-.19.9-.28,1.44-.28s1.03.09,1.44.28c.41.19.76.44,1.04.76.28.32.5.71.64,1.14.14.44.21.91.21,1.42s-.07.97-.21,1.41c-.14.43-.35.81-.64,1.14-.28.32-.63.58-1.04.76s-.89.27-1.44.27-1.02-.09-1.44-.27c-.42-.18-.77-.43-1.05-.76-.28-.32-.5-.7-.64-1.14-.14-.43-.21-.9-.21-1.41s.07-.98.21-1.42ZM56.69,22.47c.11.32.26.59.46.81s.42.38.68.5c.26.12.54.17.83.17s.57-.06.83-.17c.26-.11.49-.28.68-.5s.35-.49.46-.81c.11-.32.17-.69.17-1.11s-.06-.79-.17-1.11-.26-.6-.46-.82c-.19-.22-.42-.39-.68-.51-.26-.11-.54-.17-.83-.17s-.57.06-.83.17c-.26.12-.49.28-.68.51-.19.22-.35.49-.46.82s-.17.69-.17,1.11.06.79.17,1.11Z"/>
    <path class="st3" d="M68.94,24.79l-1.4-5.46h-.03l-1.38,5.46h-1.22l-2.21-6.87h1.25l1.56,5.62h.03l1.38-5.62h1.24l1.44,5.62h.03l1.54-5.62h1.17l-2.19,6.87h-1.2Z"/>
    <path class="st3" d="M74.47,17.92v1.09h.03c.47-.83,1.21-1.25,2.23-1.25.45,0,.83.06,1.13.19.3.12.54.3.73.52.19.22.32.49.39.79.08.31.11.65.11,1.02v4.52h-1.13v-4.65c0-.42-.12-.76-.37-1.01s-.59-.37-1.02-.37c-.35,0-.64.05-.9.16s-.46.26-.63.45c-.17.19-.29.42-.38.69-.08.26-.13.55-.13.86v3.88h-1.13v-6.87h1.06Z"/>
    <path class="st3" d="M81.99,15.3v9.49h-1.13v-9.49h1.13Z"/>
    <path class="st3" d="M83.59,19.95c.14-.44.35-.82.64-1.14.28-.32.63-.58,1.05-.76.42-.19.9-.28,1.44-.28s1.03.09,1.44.28c.41.19.76.44,1.04.76.28.32.5.71.64,1.14.14.44.21.91.21,1.42s-.07.97-.21,1.41c-.14.43-.35.81-.64,1.14-.28.32-.63.58-1.04.76s-.89.27-1.44.27-1.02-.09-1.44-.27-.77-.43-1.05-.76c-.28-.32-.5-.7-.64-1.14s-.21-.9-.21-1.41.07-.98.21-1.42ZM84.74,22.47c.11.32.26.59.46.81.2.22.42.38.68.5.26.12.54.17.83.17s.57-.06.83-.17c.26-.11.49-.28.68-.5.2-.22.35-.49.46-.81.11-.32.17-.69.17-1.11s-.06-.79-.17-1.11c-.11-.32-.26-.6-.46-.82-.19-.22-.42-.39-.68-.51-.26-.11-.54-.17-.83-.17s-.57.06-.83.17c-.26.12-.49.28-.68.51-.19.22-.35.49-.46.82-.11.32-.17.69-.17,1.11s.05.79.17,1.11Z"/>
    <path class="st3" d="M97.47,24.77c-.2.12-.46.17-.81.17-.29,0-.53-.08-.7-.25s-.26-.43-.26-.8c-.31.37-.67.64-1.08.8s-.86.25-1.34.25c-.31,0-.61-.04-.88-.11-.28-.07-.52-.18-.72-.33-.2-.15-.37-.35-.49-.59-.12-.24-.18-.54-.18-.88,0-.39.07-.71.2-.96s.31-.45.53-.6c.22-.16.46-.27.74-.35s.57-.15.86-.2c.31-.06.61-.11.88-.14.28-.03.53-.08.74-.13s.38-.14.5-.25c.12-.11.19-.27.19-.49,0-.25-.05-.45-.14-.6-.09-.15-.21-.27-.36-.35-.15-.08-.31-.13-.49-.16-.18-.03-.36-.04-.54-.04-.48,0-.88.09-1.2.27s-.49.52-.52,1.03h-1.13c.02-.43.11-.79.27-1.08.16-.29.37-.53.64-.71s.57-.31.91-.39c.34-.08.71-.12,1.1-.12.31,0,.62.02.92.07.31.04.58.13.83.27s.45.33.6.58c.15.25.23.57.23.97v3.53c0,.27.02.46.05.58.03.12.13.19.31.19.1,0,.21-.02.35-.05v.88ZM95.63,21.24c-.14.11-.33.18-.56.23-.23.05-.47.09-.72.12-.25.03-.51.07-.76.11-.26.04-.49.1-.69.19s-.37.21-.5.38c-.13.16-.19.39-.19.67,0,.19.04.34.11.47s.17.23.29.31c.12.08.26.14.42.17s.33.05.5.05c.37,0,.69-.05.96-.15.27-.1.48-.23.65-.38.17-.15.29-.32.37-.5.08-.18.12-.35.12-.51v-1.15Z"/>
    <path class="st3" d="M103.53,24.79v-.93h-.03c-.19.38-.48.66-.88.82s-.84.25-1.32.25c-.53,0-1-.1-1.39-.29-.39-.19-.72-.46-.98-.78-.26-.33-.46-.71-.59-1.14-.13-.43-.2-.89-.2-1.38s.06-.95.19-1.38c.13-.43.32-.81.58-1.14.26-.32.59-.58.98-.77s.85-.29,1.38-.29c.18,0,.37.02.57.05.2.04.41.1.61.18.2.08.4.19.58.33s.33.31.46.51h.03v-3.54h1.13v9.49h-1.13ZM99.47,22.35c.08.31.21.58.39.82s.39.43.66.57c.27.14.59.21.95.21s.7-.08.97-.23c.27-.15.48-.35.65-.59.17-.24.29-.52.37-.83.08-.31.11-.62.11-.94,0-.34-.04-.66-.12-.98s-.21-.59-.38-.83c-.17-.24-.4-.43-.67-.58-.28-.15-.61-.22-1-.22s-.71.08-.97.23-.48.35-.64.6c-.16.25-.27.53-.35.85-.07.32-.11.65-.11.98,0,.32.04.63.13.94Z"/>
  </g>
  <g class="st2">
    <path class="st3" d="M36.93,18.46c0-8.36-6.78-15.14-15.14-15.14s-15.14,6.78-15.14,15.14,6.78,15.14,15.14,15.14,15.14-6.78,15.14-15.14"/>
  </g>
  <line class="st1" x1="21.79" y1="10.16" x2="21.79" y2="22.71"/>
  <polyline class="st1" points="15.2 16.34 21.79 22.93 28.38 16.34"/>
  <line class="st1" x1="14.4" y1="26.03" x2="29.17" y2="26.03"/>
</svg>