<?xml version="1.0" encoding="UTF-8"?>
<svg id="Layer_1" xmlns="http://www.w3.org/2000/svg" xmlns:xlink="http://www.w3.org/1999/xlink" version="1.1" viewBox="0 0 141.81 36.93">
  <!-- Generator: Adobe Illustrator 29.3.0, SVG Export Plug-In . SVG Version: 2.1.0 Build 146)  -->
  <defs>
    <style>
      .st0, .st1 {
        fill: none;
      }

      .st1 {
        stroke: #c22032;
        stroke-width: 1.48px;
      }

      .st2 {
        clip-path: url(#clippath-1);
      }

      .st3 {
        fill: #fff;
      }

      .st4 {
        fill: #c22032;
      }

      .st5 {
        clip-path: url(#clippath);
      }
    </style>
    <clipPath id="clippath">
      <rect class="st0" width="141.81" height="36.93"/>
    </clipPath>
    <clipPath id="clippath-1">
      <rect class="st0" width="141.81" height="36.93"/>
    </clipPath>
  </defs>
  <g class="st5">
    <rect class="st4" width="141.81" height="36.93" rx="9" ry="9"/>
  </g>
  <g>
    <path class="st3" d="M49.78,15.3c1.46,0,2.59.37,3.38,1.12.79.74,1.18,1.88,1.18,3.4,0,.8-.09,1.5-.27,2.12-.18.62-.45,1.13-.82,1.56-.37.42-.85.74-1.42.96s-1.26.33-2.05.33h-3.26v-9.49h3.26ZM49.89,23.73c.14,0,.32-.01.53-.03.21-.02.44-.08.68-.16.24-.08.48-.21.71-.37.23-.16.45-.38.63-.65.19-.27.34-.62.46-1.03s.18-.91.18-1.5-.06-1.08-.17-1.52-.29-.83-.54-1.14-.58-.55-.98-.72-.89-.25-1.48-.25h-2.13v7.37h2.1Z"/>
    <path class="st3" d="M60.56,24.35c-.51.39-1.16.58-1.94.58-.55,0-1.03-.09-1.43-.27-.4-.18-.74-.42-1.02-.74-.27-.32-.48-.7-.62-1.14-.14-.44-.22-.93-.23-1.45,0-.52.08-1,.24-1.44.16-.43.38-.81.67-1.13s.63-.57,1.02-.74c.39-.18.83-.27,1.3-.27.61,0,1.12.13,1.52.38.4.25.73.57.97.96.24.39.41.82.51,1.28.09.46.13.9.11,1.32h-5.14c0,.3.03.59.11.86.08.27.21.51.39.72.18.21.4.38.68.5.27.12.6.19.97.19.48,0,.87-.11,1.18-.33.31-.22.51-.56.6-1.01h1.12c-.15.77-.48,1.35-1,1.74ZM60.29,19.94c-.1-.24-.24-.45-.41-.62-.17-.17-.38-.31-.61-.41s-.49-.15-.78-.15-.56.05-.79.15-.44.24-.6.42c-.17.18-.3.38-.4.62-.1.23-.16.49-.17.75h3.95c-.02-.27-.08-.52-.18-.76Z"/>
    <path class="st3" d="M63.7,23.26c.11.17.25.31.42.41.17.1.37.17.58.22.22.04.44.07.67.07.18,0,.36-.01.56-.04.19-.03.37-.08.54-.15s.3-.17.41-.31c.11-.14.16-.31.16-.53,0-.29-.11-.51-.33-.67-.22-.15-.5-.27-.83-.37s-.69-.18-1.08-.25c-.39-.08-.75-.18-1.08-.32s-.61-.33-.83-.58-.33-.59-.33-1.04c0-.35.08-.64.23-.89.15-.25.35-.45.6-.61s.52-.27.82-.35c.31-.08.61-.11.91-.11.39,0,.75.03,1.08.1.33.07.62.18.87.35s.45.38.6.66c.15.28.24.63.27,1.04h-1.13c-.02-.22-.08-.41-.17-.55-.1-.15-.22-.26-.37-.35-.15-.09-.32-.15-.5-.19s-.37-.06-.55-.06c-.17,0-.34.01-.51.04-.17.03-.33.07-.47.14s-.26.16-.35.27c-.09.11-.13.25-.13.43,0,.2.07.36.21.49.14.13.31.23.52.32.21.08.45.15.72.21.27.06.53.12.8.18.28.06.56.14.83.23.27.09.51.21.72.35.21.15.38.33.51.55.13.22.19.5.19.82,0,.42-.09.76-.26,1.04-.17.28-.4.5-.68.67s-.59.29-.94.35-.7.1-1.04.1c-.38,0-.74-.04-1.09-.12-.35-.08-.65-.21-.92-.39-.27-.18-.48-.42-.64-.72-.16-.3-.25-.66-.27-1.08h1.13c0,.25.07.46.17.63Z"/>
    <path class="st3" d="M73.59,19.12c-.28-.24-.67-.36-1.14-.36-.41,0-.75.08-1.02.23s-.49.35-.66.6c-.16.25-.28.53-.35.86-.07.32-.11.66-.11,1,0,.32.04.63.11.93.08.3.19.57.35.8.16.24.37.42.62.57.26.14.56.21.92.21.56,0,1-.15,1.31-.44.31-.29.51-.7.58-1.24h1.16c-.12.85-.44,1.51-.95,1.97s-1.2.69-2.08.69c-.52,0-.99-.08-1.39-.25s-.74-.41-1.01-.72c-.27-.31-.47-.68-.61-1.11-.14-.43-.21-.9-.21-1.42s.07-.99.2-1.44c.13-.45.33-.84.6-1.17.27-.33.61-.59,1.02-.78s.88-.29,1.42-.29c.39,0,.76.05,1.1.14.34.09.64.24.9.43.26.2.48.44.64.74.17.3.27.65.32,1.06h-1.17c-.09-.43-.28-.77-.56-1.01Z"/>
    <path class="st3" d="M82.71,24.77c-.19.12-.46.17-.81.17-.29,0-.53-.08-.7-.25s-.26-.43-.26-.8c-.31.37-.67.64-1.08.8s-.86.25-1.34.25c-.31,0-.6-.04-.88-.11-.28-.07-.52-.18-.72-.33-.2-.15-.37-.35-.49-.59-.12-.24-.18-.54-.18-.88,0-.39.07-.71.2-.96.13-.25.31-.45.52-.6.22-.16.47-.27.75-.35s.56-.15.86-.2c.31-.06.6-.11.88-.14s.53-.08.74-.13c.21-.06.38-.14.5-.25.12-.11.19-.27.19-.49,0-.25-.05-.45-.14-.6-.09-.15-.21-.27-.36-.35-.15-.08-.31-.13-.49-.16-.18-.03-.36-.04-.54-.04-.48,0-.88.09-1.2.27-.32.18-.49.52-.52,1.03h-1.13c.02-.43.11-.79.27-1.08.16-.29.37-.53.64-.71.27-.18.57-.31.91-.39.34-.08.71-.12,1.1-.12.31,0,.62.02.92.07.31.04.58.13.83.27s.45.33.6.58c.15.25.23.57.23.97v3.53c0,.27.02.46.05.58.03.12.13.19.31.19.1,0,.21-.02.34-.05v.88ZM80.87,21.24c-.14.11-.33.18-.56.23-.23.05-.47.09-.72.12-.25.03-.51.07-.76.11-.26.04-.49.1-.69.19-.2.09-.37.21-.5.38-.13.16-.19.39-.19.67,0,.19.04.34.11.47s.17.23.29.31c.12.08.26.14.42.17.16.04.33.05.5.05.37,0,.69-.05.96-.15s.48-.23.65-.38.29-.32.37-.5c.08-.18.12-.35.12-.51v-1.15Z"/>
    <path class="st3" d="M84.78,17.92v1.45h.03c.28-.56.61-.97,1.01-1.24.4-.27.9-.39,1.52-.37v1.2c-.45,0-.84.06-1.16.19-.32.12-.58.31-.77.55-.2.24-.34.53-.43.87-.09.34-.13.73-.13,1.18v3.06h-1.13v-6.87h1.06Z"/>
    <path class="st3" d="M92.97,26.73c-.51.56-1.32.84-2.42.84-.32,0-.64-.04-.98-.11-.33-.07-.63-.19-.9-.35-.27-.16-.49-.37-.67-.62-.18-.26-.28-.57-.29-.94h1.13c0,.2.07.38.19.52.12.14.27.26.44.35.17.09.36.15.56.19.2.04.4.06.58.06.37,0,.69-.06.94-.19s.47-.31.64-.53c.17-.23.29-.5.37-.82.08-.32.11-.67.11-1.05v-.45h-.03c-.19.43-.49.74-.88.94s-.81.3-1.26.3c-.51,0-.96-.09-1.34-.28-.38-.19-.7-.44-.96-.75-.26-.31-.45-.68-.58-1.1-.13-.42-.19-.87-.19-1.34,0-.41.05-.83.16-1.26.11-.43.28-.82.53-1.17.25-.35.58-.64.98-.86.41-.23.91-.34,1.5-.34.43,0,.83.1,1.2.29.36.19.65.48.85.86h.01v-.98h1.06v6.29c0,1.12-.26,1.97-.77,2.53ZM91.53,23.64c.26-.15.47-.36.63-.61.16-.25.28-.54.35-.86s.11-.64.11-.96c0-.3-.04-.6-.11-.89-.07-.29-.18-.56-.34-.79-.16-.23-.36-.42-.6-.57-.25-.14-.55-.21-.9-.21s-.67.07-.93.21c-.26.14-.47.32-.63.55-.16.23-.28.5-.36.8-.08.3-.11.62-.11.94,0,.31.03.62.09.93.06.31.17.59.32.84.15.25.35.46.6.61.25.16.56.23.93.23s.69-.08.95-.23Z"/>
    <path class="st3" d="M101.53,24.77c-.2.12-.46.17-.81.17-.29,0-.53-.08-.7-.25s-.26-.43-.26-.8c-.31.37-.67.64-1.08.8s-.86.25-1.34.25c-.31,0-.61-.04-.88-.11-.28-.07-.52-.18-.72-.33-.2-.15-.37-.35-.49-.59-.12-.24-.18-.54-.18-.88,0-.39.07-.71.2-.96s.31-.45.53-.6c.22-.16.46-.27.74-.35s.57-.15.86-.2c.31-.06.61-.11.88-.14.28-.03.53-.08.74-.13s.38-.14.5-.25c.12-.11.19-.27.19-.49,0-.25-.05-.45-.14-.6-.09-.15-.21-.27-.36-.35-.15-.08-.31-.13-.49-.16-.18-.03-.36-.04-.54-.04-.48,0-.88.09-1.2.27s-.49.52-.52,1.03h-1.13c.02-.43.11-.79.27-1.08.16-.29.37-.53.64-.71s.57-.31.91-.39c.34-.08.71-.12,1.1-.12.31,0,.62.02.92.07.31.04.58.13.83.27s.45.33.6.58c.15.25.23.57.23.97v3.53c0,.27.02.46.05.58.03.12.13.19.31.19.1,0,.21-.02.35-.05v.88ZM99.7,21.24c-.14.11-.33.18-.56.23-.23.05-.47.09-.72.12-.25.03-.51.07-.76.11-.26.04-.49.1-.69.19s-.37.21-.5.38c-.13.16-.19.39-.19.67,0,.19.04.34.11.47s.17.23.29.31c.12.08.26.14.42.17s.33.05.5.05c.37,0,.69-.05.96-.15.27-.1.48-.23.65-.38.17-.15.29-.32.37-.5.08-.18.12-.35.12-.51v-1.15Z"/>
    <path class="st3" d="M103.61,17.92v1.45h.03c.28-.56.61-.97,1.01-1.24.4-.27.9-.39,1.52-.37v1.2c-.45,0-.84.06-1.16.19-.32.12-.58.31-.77.55-.2.24-.34.53-.43.87-.09.34-.13.73-.13,1.18v3.06h-1.13v-6.87h1.06Z"/>
  </g>
  <g class="st2">
    <path class="st3" d="M36.93,18.46c0-8.36-6.78-15.14-15.14-15.14s-15.14,6.78-15.14,15.14,6.78,15.14,15.14,15.14,15.14-6.78,15.14-15.14"/>
  </g>
  <line class="st1" x1="21.79" y1="10.16" x2="21.79" y2="22.71"/>
  <polyline class="st1" points="15.2 16.34 21.79 22.93 28.38 16.34"/>
  <line class="st1" x1="14.4" y1="26.03" x2="29.17" y2="26.03"/>
</svg>