<?xml version="1.0" encoding="UTF-8"?>
<svg id="Layer_1" xmlns="http://www.w3.org/2000/svg" version="1.1" viewBox="0 0 239.74 51.52">
  <!-- Generator: Adobe Illustrator 29.3.0, SVG Export Plug-In . SVG Version: 2.1.0 Build 146)  -->
  <defs>
    <style>
      .st0 {
        fill: #fff;
      }
    </style>
  </defs>
  <path class="st0" d="M17.56,28.73l.94,9h.29l1.02-9.14L28.66.36h6.53l8.71,28.37,1.02,9h.29l1.09-9.14L52.46.36h10.09l-14,51.16h-6.68l-9.07-28.23-1.23-7.76h-.36l-1.23,7.84-9,28.15h-7.04L0,.36h10.81l6.75,28.37Z"/>
  <path class="st0" d="M68.93.36h9.94v50.79h-9.94V.36Z"/>
  <path class="st0" d="M125.24,9.21h-14.8v41.94h-9.94V9.21h-14.88V.36h39.62v8.85Z"/>
  <path class="st0" d="M160,29.9h-18.58v21.26h-9.94V.36h9.94v20.68h18.58V.36h9.94v50.79h-9.94v-21.26Z"/>
  <path class="st0" d="M180.39.36h9.94v50.79h-9.94V.36Z"/>
  <path class="st0" d="M213.4,24.67l-3.99-7.98h-.36l1.16,7.98v26.49h-9.43V0h7.26l19.23,27.07,3.85,7.76h.36l-1.16-7.76V.36h9.43v51.16h-7.26l-19.08-26.85Z"/>
</svg>