<?xml version="1.0" encoding="UTF-8"?>
<svg id="Layer_1" xmlns="http://www.w3.org/2000/svg" version="1.1" viewBox="0 0 986.81 172.57">
  <!-- Generator: Adobe Illustrator 29.3.0, SVG Export Plug-In . SVG Version: 2.1.0 Build 146)  -->
  <defs>
    <style>
      .st0 {
        fill: #fff;
      }
    </style>
  </defs>
  <path class="st0" d="M0,3.32h98.37v28.92H32.48v38.64h59.97v28.92h-59.97v40.53h67.08v28.92H0V3.32Z"/>
  <path class="st0" d="M232.78,169.25h-105.01V3.32h32.48v137.01h72.54v28.92Z"/>
  <path class="st0" d="M350.35,100.75l4.27,28.21h1.19l4.74-28.45L392.3,3.32h34.13l-61.63,167.12h-23.23L279.47,3.32h37.69l33.19,97.43Z"/>
  <path class="st0" d="M510.11,132.51h-50.96l-12.56,36.74h-32.48L473.85,2.13h23.94l59.74,167.12h-34.13l-13.27-36.74ZM467.45,106.43h35.56l-12.33-36.98-4.98-26.08h-1.19l-4.98,26.31-12.09,36.74Z"/>
  <path class="st0" d="M681.73,169.25h-105.01V3.32h32.48v137.01h72.54v28.92Z"/>
  <path class="st0" d="M694.53,86.29c0-27.65,6.08-48.95,18.25-63.88,12.17-14.93,29.55-22.4,52.15-22.4,11.85,0,22.2,2.06,31.05,6.16,8.85,4.11,16.2,9.96,22.05,17.54,5.84,7.58,10.19,16.67,13.04,27.26,2.84,10.59,4.27,22.36,4.27,35.32,0,27.66-6.13,48.95-18.37,63.88-12.25,14.93-29.59,22.4-52.03,22.4-12.01,0-22.44-2.06-31.29-6.16-8.85-4.11-16.16-9.96-21.93-17.54-5.77-7.59-10.07-16.67-12.92-27.26-2.84-10.58-4.27-22.36-4.27-35.32ZM728.67,86.29c0,8.38.71,16.08,2.13,23.11,1.42,7.03,3.59,13.08,6.52,18.13,2.92,5.06,6.67,9.01,11.26,11.85,4.58,2.84,10.03,4.27,16.36,4.27,11.53,0,20.46-4.5,26.79-13.51,6.32-9.01,9.48-23.62,9.48-43.85,0-8.06-.67-15.56-2.01-22.52-1.34-6.95-3.44-13.04-6.28-18.25-2.84-5.21-6.56-9.28-11.14-12.21-4.59-2.92-10.19-4.39-16.83-4.39-11.54,0-20.47,4.62-26.79,13.87-6.32,9.25-9.48,23.75-9.48,43.5Z"/>
  <path class="st0" d="M862.12,4.98c3.63-.63,7.54-1.22,11.73-1.78,4.19-.55,8.38-.99,12.56-1.3,4.19-.31,8.26-.55,12.21-.71,3.95-.16,7.59-.24,10.9-.24,7.74,0,15.37.71,22.88,2.13,7.5,1.42,14.22,3.87,20.15,7.35,5.93,3.48,10.67,8.26,14.22,14.34,3.56,6.09,5.33,13.71,5.33,22.88,0,13.59-3.16,24.65-9.48,33.19-6.32,8.53-14.78,14.46-25.36,17.78l11.62,7.35,37.93,63.29h-37.45l-37.69-64.95-17.07-3.08v68.03h-32.48V4.98ZM911.9,29.87c-3.32,0-6.6.08-9.84.24-3.24.16-5.73.47-7.47.95v48.12h13.75c9.01,0,16.2-2.05,21.57-6.16,5.37-4.11,8.06-10.9,8.06-20.39,0-7.11-2.21-12.68-6.64-16.71-4.43-4.03-10.9-6.04-19.44-6.04Z"/>
</svg>