<?xml version="1.0" encoding="UTF-8"?>
<svg id="Layer_1" xmlns="http://www.w3.org/2000/svg" version="1.1" viewBox="0 0 219.38 79.98">
  <!-- Generator: Adobe Illustrator 29.3.0, SVG Export Plug-In . SVG Version: 2.1.0 Build 146)  -->
  <path d="M134.83,34.02c-1.06,10.57-6.91,20.77-14.83,27.79-4.7,4.16-10.23,7.65-16.53,8.62-5.38.84-10.75-.57-14.95-4.17-3.75-3.22-5.29-8.58-3.51-13.42,1.96-5.31,7.07-9.64,12.17-12.45,10.89-5.99,24.41-7.76,36.65-7.3.36.01.72.04,1.08.06-.02.28-.05.57-.08.87M219.17,74.65c-2.91-8.62-5.83-17.24-8.74-25.86-.59-1.75-2.86-2.55-4.5-2.04-1.86.59-2.8,2.26-2.64,4.17.18,2.13.37,4.25.55,6.38-15.89-17.31-38.39-28.32-61.7-31.07-.72-5.41-2.74-10.56-6.5-14.86C124.45-1.42,105.53-.83,90.1.96c-29.21,3.4-57.46,15.15-80.53,33.36-2.81,2.22-5.53,4.53-8.18,6.94-1.5,1.36-1.9,3.63-.58,5.28,1.21,1.51,3.77,1.95,5.28.58C26.06,28.98,50.79,16.28,77.2,10.69c6.66-1.41,13.42-2.39,20.21-2.9,7.12-.54,14.65-.59,21.52,1.6,3.4,1.08,6.5,2.68,9.21,5.02.89.77,1.68,1.66,2.4,2.58,1.03,1.3,1.34,1.78,2.02,3.13,1.05,2.07,1.54,3.5,1.92,5.5-11.8-.49-23.98,1.06-34.91,5.36-12.87,5.07-27.25,17.7-21.58,33.02,2.33,6.28,8.25,10.97,14.51,12.92,7.03,2.19,14.42,1.25,21.03-1.82,12.02-5.59,21.58-16.77,26.11-29.13,1.41-3.85,2.37-8,2.68-12.16,21.94,2.85,42.96,13.43,57.51,30.25,1.67,1.93,3.25,3.95,4.74,6.02l-22.47-4.58c-1.99-.41-3.92,1.5-4.1,3.37-.22,2.19,1.38,3.69,3.37,4.1,11.33,2.31,22.66,4.62,33.99,6.93,3.03.62,4.6-2.88,3.8-5.26"/>
</svg>