<?xml version="1.0" encoding="UTF-8"?>
<svg id="Layer_1" xmlns="http://www.w3.org/2000/svg" version="1.1" viewBox="0 0 111.24 49.99">
  <!-- Generator: Adobe Illustrator 29.3.0, SVG Export Plug-In . SVG Version: 2.1.0 Build 146)  -->
  <defs>
    <style>
      .st0 {
        fill: #fff;
      }
    </style>
  </defs>
  <path class="st0" d="M0,9.2C0,6.25.65,3.98,1.95,2.39,3.24.8,5.1,0,7.51,0c1.26,0,2.37.22,3.31.66s1.73,1.06,2.35,1.87c.62.81,1.09,1.78,1.39,2.91.3,1.13.46,2.38.46,3.77,0,2.95-.65,5.22-1.96,6.81-1.31,1.59-3.16,2.39-5.55,2.39-1.28,0-2.39-.22-3.34-.66-.94-.44-1.72-1.06-2.34-1.87-.62-.81-1.07-1.78-1.38-2.91-.3-1.13-.46-2.38-.46-3.77ZM3.64,9.2c0,.89.08,1.71.23,2.46s.38,1.39.7,1.93c.31.54.71.96,1.2,1.26s1.07.46,1.74.46c1.23,0,2.18-.48,2.86-1.44s1.01-2.52,1.01-4.68c0-.86-.07-1.66-.22-2.4-.14-.74-.37-1.39-.67-1.95-.3-.56-.7-.99-1.19-1.3-.49-.31-1.09-.47-1.8-.47-1.23,0-2.18.49-2.86,1.48-.67.99-1.01,2.53-1.01,4.64Z"/>
  <path class="st0" d="M19.47.35h10.49v3.08h-7.03v4.37h6.47v3.08h-6.47v7.16h-3.46V.35Z"/>
  <path class="st0" d="M45.31,10.24l.33,3.13h.1l.35-3.19L49.17.35h2.28l3.03,9.89.35,3.13h.1l.38-3.19L57.47.35h3.51l-4.88,17.82h-2.33l-3.16-9.83-.43-2.71h-.13l-.43,2.73-3.14,9.81h-2.45L39.19.35h3.77l2.35,9.89Z"/>
  <path class="st0" d="M74.56,10.64h-6.47v7.41h-3.46V.35h3.46v7.21h6.47V.35h3.46v17.7h-3.46v-7.41Z"/>
  <path class="st0" d="M91.93,14.13h-5.44l-1.34,3.92h-3.46L88.06.23h2.55l6.37,17.82h-3.64l-1.42-3.92ZM87.38,11.35h3.79l-1.31-3.94-.53-2.78h-.13l-.53,2.81-1.29,3.92Z"/>
  <path class="st0" d="M111.24,3.44h-5.16v14.61h-3.46V3.44h-5.18V.35h13.8v3.08Z"/>
  <path class="st0" d="M7.13,42.05l.33,3.13h.1l.35-3.19,3.08-9.83h2.28l3.03,9.89.35,3.13h.1l.38-3.19,2.15-9.83h3.51l-4.88,17.82h-2.33l-3.16-9.83-.43-2.71h-.13l-.43,2.73-3.14,9.81h-2.45L1.01,32.16h3.77l2.35,9.89Z"/>
  <path class="st0" d="M26.44,32.16h10.49v3.08h-7.03v4.12h6.4v3.08h-6.4v4.32h7.15v3.08h-10.62v-17.7Z"/>
  <path class="st0" d="M57.99,42.45h-6.47v7.41h-3.46v-17.7h3.46v7.21h6.47v-7.21h3.46v17.7h-3.46v-7.41Z"/>
  <path class="st0" d="M75.36,45.94h-5.44l-1.34,3.92h-3.46l6.37-17.82h2.55l6.37,17.82h-3.64l-1.42-3.92ZM70.81,43.16h3.79l-1.31-3.94-.53-2.78h-.13l-.53,2.81-1.29,3.92Z"/>
  <path class="st0" d="M88.23,42.55l.46,3.01h.13l.51-3.03,3.39-10.37h3.64l-6.57,17.82h-2.48l-6.62-17.82h4.02l3.54,10.39Z"/>
  <path class="st0" d="M99.86,32.16h10.49v3.08h-7.03v4.12h6.4v3.08h-6.4v4.32h7.15v3.08h-10.62v-17.7Z"/>
</svg>