<?xml version="1.0" encoding="UTF-8"?>
<svg id="Layer_1" xmlns="http://www.w3.org/2000/svg" version="1.1" viewBox="0 0 427.26 164.04">
  <!-- Generator: Adobe Illustrator 29.3.0, SVG Export Plug-In . SVG Version: 2.1.0 Build 146)  -->
  <defs>
    <style>
      .st0 {
        fill: #fff;
      }
    </style>
  </defs>
  <g>
    <path class="st0" d="M10.85,1.16c1.16-.17,2.46-.3,3.92-.41,1.46-.11,2.96-.19,4.5-.25,1.54-.05,3.04-.1,4.5-.12,1.46-.03,2.77-.04,3.92-.04,5.12,0,9.5.72,13.13,2.15s6.58,3.44,8.84,6.03c2.26,2.59,3.91,5.67,4.96,9.25,1.04,3.58,1.57,7.52,1.57,11.81,0,3.91-.5,7.68-1.49,11.32-.99,3.63-2.64,6.86-4.96,9.66-2.31,2.81-5.36,5.07-9.13,6.77-3.77,1.71-8.44,2.56-14,2.56-.88,0-2.05-.03-3.51-.08-1.46-.06-2.97-.12-4.54-.21-1.57-.08-3.07-.17-4.5-.25-1.43-.08-2.51-.18-3.22-.29V1.16ZM28.6,10.41c-1.21,0-2.44.03-3.68.08-1.24.06-2.16.14-2.77.25v38.74c.22.05.59.1,1.12.12.52.03,1.09.05,1.69.08.61.03,1.18.06,1.73.08.55.03.96.04,1.24.04,3.19,0,5.85-.56,7.97-1.69,2.12-1.13,3.8-2.63,5.04-4.5,1.24-1.87,2.11-4.03,2.6-6.48.5-2.45.74-4.97.74-7.56,0-2.26-.22-4.53-.66-6.81-.44-2.28-1.25-4.34-2.44-6.15-1.18-1.82-2.8-3.3-4.83-4.46-2.04-1.16-4.63-1.73-7.76-1.73Z"/>
    <path class="st0" d="M70.48,1.16h34.28v10.08h-22.96v13.46h20.9v10.08h-20.9v14.12h23.37v10.08h-34.69V1.16Z"/>
    <path class="st0" d="M177.68,58.97h-36.59V1.16h11.32v47.74h25.27v10.08Z"/>
    <path class="st0" d="M187.43,30.06c0-9.63,2.12-17.06,6.36-22.26,4.24-5.2,10.3-7.81,18.17-7.81,4.13,0,7.74.72,10.82,2.15,3.08,1.43,5.64,3.47,7.68,6.11,2.04,2.64,3.55,5.81,4.54,9.5.99,3.69,1.49,7.79,1.49,12.31,0,9.64-2.13,17.06-6.4,22.26-4.27,5.2-10.31,7.8-18.13,7.8-4.19,0-7.82-.72-10.9-2.15-3.08-1.43-5.63-3.47-7.64-6.11-2.01-2.64-3.51-5.81-4.5-9.5-.99-3.69-1.49-7.79-1.49-12.31ZM199.32,30.06c0,2.92.25,5.6.74,8.05.5,2.45,1.25,4.56,2.27,6.32,1.02,1.76,2.33,3.14,3.92,4.13,1.6.99,3.5,1.49,5.7,1.49,4.02,0,7.13-1.57,9.33-4.71,2.2-3.14,3.3-8.23,3.3-15.28,0-2.81-.23-5.42-.7-7.85-.47-2.42-1.2-4.54-2.19-6.36-.99-1.82-2.29-3.23-3.88-4.25-1.6-1.02-3.55-1.53-5.86-1.53-4.02,0-7.13,1.61-9.33,4.83-2.2,3.22-3.3,8.27-3.3,15.16Z"/>
    <path class="st0" d="M270.27,30.06c0-9.63,2.12-17.06,6.36-22.26,4.24-5.2,10.3-7.81,18.17-7.81,4.13,0,7.74.72,10.82,2.15,3.08,1.43,5.64,3.47,7.68,6.11,2.04,2.64,3.55,5.81,4.54,9.5.99,3.69,1.49,7.79,1.49,12.31,0,9.64-2.13,17.06-6.4,22.26-4.27,5.2-10.31,7.8-18.13,7.8-4.19,0-7.82-.72-10.9-2.15-3.08-1.43-5.63-3.47-7.64-6.11-2.01-2.64-3.51-5.81-4.5-9.5-.99-3.69-1.49-7.79-1.49-12.31ZM282.16,30.06c0,2.92.25,5.6.74,8.05.5,2.45,1.25,4.56,2.27,6.32,1.02,1.76,2.33,3.14,3.92,4.13,1.6.99,3.5,1.49,5.7,1.49,4.02,0,7.13-1.57,9.33-4.71,2.2-3.14,3.3-8.23,3.3-15.28,0-2.81-.23-5.42-.7-7.85-.47-2.42-1.2-4.54-2.19-6.36s-2.29-3.23-3.88-4.25c-1.6-1.02-3.55-1.53-5.86-1.53-4.02,0-7.13,1.61-9.33,4.83-2.2,3.22-3.3,8.27-3.3,15.16ZM325.11,75.65c-2.64.72-5.31,1.08-8.01,1.08s-5.53-.29-8.18-.87c-2.64-.58-5.2-1.2-7.68-1.86s-4.87-1.28-7.19-1.86-4.49-.87-6.52-.87c-1.32,0-2.59.17-3.8.5v-9.75c1.54-.33,3.14-.5,4.79-.5,2.31,0,4.61.27,6.9.81,2.28.54,4.61,1.12,6.98,1.75,2.37.62,4.79,1.21,7.27,1.75,2.48.54,5.09.81,7.85.81,1.21,0,2.45-.07,3.72-.21,1.27-.14,2.56-.37,3.88-.7v9.9Z"/>
    <path class="st0" d="M364.51,1.16h10.74v37.33c0,3.75-.5,6.97-1.49,9.66-.99,2.7-2.37,4.93-4.13,6.69s-3.91,3.06-6.44,3.88c-2.53.83-5.31,1.24-8.34,1.24-14.65,0-21.97-6.69-21.97-20.07V1.16h11.32v36.51c0,2.26.21,4.17.62,5.74s1.06,2.84,1.94,3.8c.88.96,1.98,1.65,3.3,2.06,1.32.41,2.86.62,4.62.62,3.47,0,5.97-.96,7.52-2.89,1.54-1.93,2.31-5.04,2.31-9.33V1.16Z"/>
    <path class="st0" d="M391.6,1.16h34.28v10.08h-22.96v13.46h20.9v10.08h-20.9v14.12h23.38v10.08h-34.69V1.16Z"/>
  </g>
  <g>
    <path class="st0" d="M36.59,162.89H0v-57.82h11.32v47.74h25.27v10.08Z"/>
    <path class="st0" d="M85.57,162.89h-36.59v-57.82h11.32v47.74h25.27v10.08Z"/>
    <path class="st0" d="M97.96,105.07h34.28v10.08h-22.96v13.46h20.9v10.08h-20.9v14.12h23.37v10.08h-34.69v-57.82Z"/>
    <path class="st0" d="M167.91,139.02l1.49,9.83h.41l1.65-9.91,11.07-33.86h11.89l-21.47,58.23h-8.09l-21.64-58.23h13.13l11.56,33.95Z"/>
    <path class="st0" d="M229.03,150.08h-17.76l-4.38,12.8h-11.32l20.81-58.23h8.34l20.81,58.23h-11.89l-4.63-12.8ZM214.16,141h12.39l-4.29-12.88-1.73-9.08h-.41l-1.73,9.17-4.21,12.8Z"/>
    <path class="st0" d="M302.29,132.91l1.24-11.48h-.5l-3.55,9.25-12.31,21.56h-3.63l-12.97-21.64-3.63-9.17h-.41l1.65,11.4v30.06h-10.74v-57.82h10.32l15.45,26.43,2.73,6.61h.33l2.48-6.77,14.62-26.27h10.24v57.82h-11.32v-29.98Z"/>
    <path class="st0" d="M328.23,133.98c0-9.63,2.12-17.06,6.36-22.26,4.24-5.2,10.3-7.81,18.17-7.81,4.13,0,7.74.72,10.82,2.15,3.08,1.43,5.64,3.47,7.68,6.11,2.04,2.64,3.55,5.81,4.54,9.5.99,3.69,1.49,7.79,1.49,12.31,0,9.64-2.13,17.06-6.4,22.26-4.27,5.2-10.31,7.8-18.13,7.8-4.19,0-7.82-.72-10.9-2.15-3.08-1.43-5.63-3.47-7.64-6.11-2.01-2.64-3.51-5.81-4.5-9.5-.99-3.69-1.49-7.79-1.49-12.31ZM340.12,133.98c0,2.92.25,5.6.74,8.05.5,2.45,1.25,4.56,2.27,6.32,1.02,1.76,2.33,3.14,3.92,4.13,1.6.99,3.5,1.49,5.7,1.49,4.02,0,7.13-1.57,9.33-4.71,2.2-3.14,3.3-8.23,3.3-15.28,0-2.81-.23-5.42-.7-7.85-.47-2.42-1.2-4.54-2.19-6.36s-2.29-3.23-3.88-4.25c-1.6-1.02-3.55-1.53-5.86-1.53-4.02,0-7.13,1.61-9.33,4.83-2.2,3.22-3.3,8.27-3.3,15.16Z"/>
    <path class="st0" d="M415.94,147.36c0-1.76-.65-3.19-1.94-4.29s-2.92-2.11-4.87-3.01c-1.96-.91-4.08-1.84-6.36-2.81-2.29-.96-4.41-2.15-6.36-3.55-1.96-1.4-3.58-3.15-4.87-5.25-1.29-2.09-1.94-4.76-1.94-8.01,0-2.81.47-5.25,1.4-7.31.94-2.07,2.27-3.79,4.01-5.16,1.73-1.38,3.79-2.39,6.15-3.06,2.37-.66,5.01-.99,7.93-.99,3.36,0,6.53.29,9.5.87,2.97.58,5.42,1.42,7.35,2.52l-3.55,9.5c-1.21-.77-3.03-1.47-5.45-2.11-2.42-.63-5.04-.95-7.85-.95-2.64,0-4.67.52-6.07,1.57-1.4,1.05-2.11,2.45-2.11,4.21,0,1.65.65,3.03,1.94,4.13,1.29,1.1,2.92,2.12,4.87,3.06,1.95.94,4.07,1.9,6.36,2.89,2.28.99,4.4,2.19,6.36,3.59,1.95,1.4,3.58,3.14,4.87,5.2s1.94,4.64,1.94,7.72-.51,5.74-1.53,7.97c-1.02,2.23-2.45,4.09-4.29,5.58-1.84,1.49-4.08,2.59-6.69,3.3-2.62.71-5.49,1.07-8.63,1.07-4.13,0-7.76-.39-10.9-1.16s-5.45-1.54-6.94-2.31l3.63-9.66c.61.33,1.39.69,2.35,1.07.96.39,2.05.74,3.26,1.07,1.21.33,2.49.61,3.84.83,1.35.22,2.74.33,4.17.33,3.36,0,5.93-.56,7.72-1.69,1.79-1.13,2.68-2.85,2.68-5.16Z"/>
  </g>
</svg>