<?xml version="1.0" encoding="UTF-8"?>
<svg id="Layer_1" xmlns="http://www.w3.org/2000/svg" version="1.1" viewBox="0 0 350.54 52.03">
  <!-- Generator: Adobe Illustrator 29.3.0, SVG Export Plug-In . SVG Version: 2.1.0 Build 146)  -->
  <defs>
    <style>
      .st0 {
        fill: #fff;
      }
    </style>
  </defs>
  <path class="st0" d="M39.62,9.21h-14.8v41.94h-9.94V9.21H0V.36h39.62v8.85Z"/>
  <path class="st0" d="M74.38,29.9h-18.58v21.26h-9.94V.36h9.94v20.68h18.58V.36h9.94v50.79h-9.94v-21.26Z"/>
  <path class="st0" d="M94.33.36h30.11v8.85h-20.17v11.83h18.36v8.85h-18.36v12.41h20.54v8.85h-30.48V.36Z"/>
  <path class="st0" d="M165.87,30.19l1.31,8.63h.36l1.45-8.71L178.72.36h10.45l-18.87,51.16h-7.11L144.18.36h11.54l10.16,29.82Z"/>
  <path class="st0" d="M214.78,39.91h-15.6l-3.85,11.25h-9.94L203.68,0h7.33l18.29,51.16h-10.45l-4.06-11.25ZM201.72,31.93h10.88l-3.77-11.32-1.52-7.98h-.36l-1.52,8.05-3.7,11.25Z"/>
  <path class="st0" d="M267.32,51.16h-32.15V.36h9.94v41.94h22.2v8.85Z"/>
  <path class="st0" d="M300.84.36h9.43v32.8c0,3.29-.44,6.12-1.31,8.49-.87,2.37-2.08,4.33-3.63,5.88s-3.44,2.68-5.66,3.41c-2.23.73-4.67,1.09-7.33,1.09-12.87,0-19.3-5.88-19.3-17.63V.36h9.94v32.07c0,1.98.18,3.66.54,5.04.36,1.38.93,2.49,1.71,3.34.77.85,1.74,1.45,2.9,1.81,1.16.36,2.51.54,4.06.54,3.05,0,5.25-.85,6.6-2.54,1.35-1.69,2.03-4.43,2.03-8.2V.36Z"/>
  <path class="st0" d="M320.07.36h30.11v8.85h-20.17v11.83h18.36v8.85h-18.36v12.41h20.54v8.85h-30.48V.36Z"/>
</svg>