<?xml version="1.0" encoding="UTF-8"?>
<svg id="Layer_1" xmlns="http://www.w3.org/2000/svg" version="1.1" viewBox="0 0 144.75 137.48">
  <!-- Generator: Adobe Illustrator 29.3.0, SVG Export Plug-In . SVG Version: 2.1.0 Build 146)  -->
  <path d="M130.17,111.91c.33-1.29.66-2.57.98-3.86-18.35,24.05-51.61,35.73-80.87,26.01-16.51-5.48-30.97-17.53-39.86-32.43-4.56-7.64-7.8-15.9-9.37-24.67-1.88-10.53-1.11-21.59,1.42-31.94C7.36,25.06,19.8,5.35,40.83.09c2.27-.57,4.56,1.69,4.81,3.8.3,2.58-1.52,4.24-3.8,4.81-15.16,3.79-25.03,19.04-29.62,33.4-5.4,16.94-4.68,35.24,3.35,51.05,6.93,13.67,19,25.02,33.16,31.07,14.21,6.07,30.14,6.1,44.49,1,14.72-5.23,27.66-15.4,35.41-28.93-2.88.62-5.75,1.23-8.63,1.86-2.29.49-4.55-1.64-4.81-3.8-.29-2.51,1.51-4.31,3.8-4.81,6.96-1.5,13.92-2.99,20.88-4.49,2.6-.56,5.44,2.38,4.79,4.96-1.97,7.74-3.94,15.48-5.92,23.22-.57,2.27-2.47,4-4.95,3.62-2.14-.33-4.2-2.66-3.62-4.94"/>
</svg>