<?xml version="1.0" encoding="UTF-8"?>
<svg id="Layer_1" xmlns="http://www.w3.org/2000/svg" version="1.1" viewBox="0 0 846.95 172.57">
  <!-- Generator: Adobe Illustrator 29.3.0, SVG Export Plug-In . SVG Version: 2.1.0 Build 146)  -->
  <defs>
    <style>
      .st0 {
        fill: #fff;
      }
    </style>
  </defs>
  <path class="st0" d="M0,3.32c3.32-.47,7.07-.87,11.26-1.19,4.19-.32,8.49-.55,12.92-.71,4.42-.16,8.73-.27,12.92-.36,4.19-.08,7.94-.12,11.26-.12,14.7,0,27.26,2.06,37.69,6.16,10.43,4.11,18.88,9.88,25.36,17.3,6.48,7.43,11.22,16.28,14.22,26.55,3,10.27,4.5,21.57,4.5,33.9,0,11.22-1.42,22.05-4.27,32.48s-7.58,19.67-14.22,27.73-15.37,14.54-26.19,19.44c-10.83,4.9-24.22,7.35-40.18,7.35-2.53,0-5.89-.08-10.07-.24-4.19-.16-8.53-.36-13.04-.59-4.5-.24-8.81-.47-12.92-.71-4.11-.24-7.19-.51-9.25-.83V3.32ZM50.96,29.87c-3.48,0-6.99.08-10.55.24-3.56.16-6.2.4-7.94.71v111.17c.63.16,1.7.28,3.2.36,1.5.08,3.12.16,4.86.24,1.74.08,3.4.16,4.98.24,1.58.08,2.76.12,3.56.12,9.16,0,16.79-1.62,22.88-4.86,6.08-3.24,10.9-7.54,14.46-12.92,3.56-5.37,6.04-11.57,7.47-18.61,1.42-7.03,2.13-14.26,2.13-21.69,0-6.48-.63-13-1.9-19.56-1.27-6.56-3.6-12.45-6.99-17.66-3.4-5.21-8.02-9.48-13.87-12.8-5.85-3.32-13.27-4.98-22.28-4.98Z"/>
  <path class="st0" d="M154.08,3.32h98.37v28.92h-65.9v38.64h59.97v28.92h-59.97v40.53h67.08v28.92h-99.56V3.32Z"/>
  <path class="st0" d="M321.19,82.73l-13.04-26.08h-1.19l3.79,26.08v86.52h-30.82V2.13h23.71l62.82,88.42,12.56,25.36h1.19l-3.79-25.36V3.32h30.82v167.12h-23.71l-62.34-87.71Z"/>
  <path class="st0" d="M555.16,32.24h-48.36v137.01h-32.47V32.24h-48.59V3.32h129.43v28.92Z"/>
  <path class="st0" d="M573.64,4.98c3.63-.63,7.54-1.22,11.73-1.78,4.19-.55,8.38-.99,12.56-1.3,4.19-.31,8.26-.55,12.21-.71,3.95-.16,7.59-.24,10.9-.24,7.74,0,15.37.71,22.88,2.13,7.5,1.42,14.22,3.87,20.15,7.35,5.93,3.48,10.67,8.26,14.22,14.34,3.56,6.09,5.33,13.71,5.33,22.88,0,13.59-3.16,24.65-9.48,33.19-6.32,8.53-14.78,14.46-25.36,17.78l11.62,7.35,37.93,63.29h-37.45l-37.69-64.95-17.07-3.08v68.03h-32.48V4.98ZM623.42,29.87c-3.32,0-6.6.08-9.84.24-3.24.16-5.73.47-7.47.95v48.12h13.75c9.01,0,16.2-2.05,21.57-6.16,5.37-4.11,8.06-10.9,8.06-20.39,0-7.11-2.21-12.68-6.64-16.71-4.43-4.03-10.9-6.04-19.44-6.04Z"/>
  <path class="st0" d="M706.15,86.29c0-27.65,6.08-48.95,18.25-63.88,12.17-14.93,29.55-22.4,52.15-22.4,11.85,0,22.2,2.06,31.05,6.16,8.85,4.11,16.2,9.96,22.05,17.54,5.84,7.58,10.19,16.67,13.04,27.26,2.84,10.59,4.27,22.36,4.27,35.32,0,27.66-6.13,48.95-18.37,63.88-12.25,14.93-29.59,22.4-52.03,22.4-12.01,0-22.44-2.06-31.29-6.16-8.85-4.11-16.16-9.96-21.93-17.54-5.77-7.59-10.07-16.67-12.92-27.26-2.84-10.58-4.27-22.36-4.27-35.32ZM740.28,86.29c0,8.38.71,16.08,2.13,23.11,1.42,7.03,3.59,13.08,6.52,18.13,2.92,5.06,6.67,9.01,11.26,11.85,4.58,2.84,10.03,4.27,16.36,4.27,11.53,0,20.46-4.5,26.79-13.51,6.32-9.01,9.48-23.62,9.48-43.85,0-8.06-.67-15.56-2.02-22.52-1.34-6.95-3.44-13.04-6.28-18.25-2.84-5.21-6.56-9.28-11.14-12.21-4.58-2.92-10.19-4.39-16.83-4.39-11.54,0-20.47,4.62-26.79,13.87-6.32,9.25-9.48,23.75-9.48,43.5Z"/>
</svg>