<svg xmlns="http://www.w3.org/2000/svg" width="9.615" height="16.769" viewBox="0 0 9.615 16.769">
  <g id="Group_1708" data-name="Group 1708" transform="translate(-252.355 -233.925)">
    <g id="Group_910" data-name="Group 910" transform="translate(252.355 238.29)">
      <path id="Path_1009" data-name="Path 1009" d="M257.162,265.83a4.8,4.8,0,0,0-2.421,8.954,1.209,1.209,0,0,1,.447.386.7.7,0,0,1,.071.279v.609a.725.725,0,0,0,.64.641h2.564a.746.746,0,0,0,.641-.641v-.577a.828.828,0,0,1,.233-.542.155.155,0,0,1,.024-.021c.014-.012.153-.089.3-.18a4.806,4.806,0,0,0-2.5-8.908m1.679,7.194a1.956,1.956,0,0,1-1.712.837,1.872,1.872,0,0,1-1.678-.84,4.738,4.738,0,0,1-.009-4.427,1.864,1.864,0,0,1,1.707-.878,2.025,2.025,0,0,1,1.338.483,3.323,3.323,0,0,1,.94,2.659,3.7,3.7,0,0,1-.586,2.166" transform="translate(-252.355 -265.83)" fill="#4c5c6e"/>
    </g>
    <g id="Group_911" data-name="Group 911" transform="translate(255.623 249.625)">
      <path id="Path_1010" data-name="Path 1010" d="M276.65,348.687h2.256c.549,0,.549,1.068,0,1.068H276.65C276.1,349.755,276.1,348.687,276.65,348.687Z" transform="translate(-276.239 -348.687)" fill="#4c5c6e"/>
    </g>
    <g id="Group_912" data-name="Group 912" transform="translate(252.766 233.924)">
      <path id="Path_1011" data-name="Path 1011" d="M284.62,234.336v2.4c0,.549-1.068.549-1.068,0v-2.4C283.552,233.787,284.62,233.787,284.62,234.336Z" transform="translate(-279.695 -233.924)" fill="#4c5c6e"/>
      <path id="Path_1012" data-name="Path 1012" d="M256.221,241.284l1.7,1.7c.388.388-.367,1.143-.755.755l-1.7-1.7C255.078,241.652,255.833,240.9,256.221,241.284Z" transform="translate(-255.358 -240.184)" fill="#4c5c6e"/>
      <path id="Path_1013" data-name="Path 1013" d="M302.7,242.039l-1.7,1.7c-.388.388-1.143-.367-.755-.755l1.7-1.7C302.33,240.9,303.085,241.652,302.7,242.039Z" transform="translate(-294.012 -240.184)" fill="#4c5c6e"/>
    </g>
  </g>
</svg>
