<?xml version="1.0" encoding="UTF-8"?>
<svg id="Layer_1" xmlns="http://www.w3.org/2000/svg" xmlns:xlink="http://www.w3.org/1999/xlink" version="1.1" viewBox="0 0 289.62 283.74">
  <!-- Generator: Adobe Illustrator 29.3.0, SVG Export Plug-In . SVG Version: 2.1.0 Build 146)  -->
  <defs>
    <style>
      .st0 {
        fill: none;
      }

      .st1 {
        fill: #fff;
      }

      .st2 {
        clip-path: url(#clippath);
      }
    </style>
    <clipPath id="clippath">
      <rect class="st0" width="289.62" height="283.74"/>
    </clipPath>
  </defs>
  <g class="st2">
    <path class="st1" d="M112.38,174.99v-48.07h64.86v48.07c23.05,1.84,44.86,5.64,64.86,11.03V0h-50.6l-.08.07c-7.56.39-13.57,6.21-14.09,13.56l-.1.1v49.72h-64.86V0h-50.6l-.08.07c-7.55.39-13.57,6.21-14.09,13.56l-.1.1v172.27c20-5.38,41.81-9.18,64.86-11.03"/>
    <path class="st1" d="M120.16,278.18v-30.04h6.81s6.19.08,6.19,6.13-5.42,5.93-5.42,5.93l-6.01.07s3.6.64,4.76,4.25c3.05,9.4,5.29,17.8,13.38,18.93,4.56.66,6.23,0,6.54-.09.27-.09.48-.18.76-.33l-.27-.22s-2.87-2.63-4.36-7.9c-1.3-4.63-2.65-8.17-4.7-10.48,1.95-1.13,5.93-3.51,5.93-10.57,0-4.31-1.3-7.69-3.84-10.03-4.07-3.76-9.82-3.51-10.07-3.5h.04l-20.42.02v32.32c0,3.88.75,5.51,5.48,5.51h5.2Z"/>
    <path class="st1" d="M75.96,240.35s0,34.03,0,37.92h-5.37c-4.73,0-5.48-1.61-5.48-5.5v-9.12l-11.26.02v14.61h-6.14c-4.16,0-4.73-1.09-4.73-4.75v-33.17l10.86-.02v14.54h11.26v-14.53h10.85Z"/>
    <path class="st1" d="M214.32,240.35v8.16h18.1c-1.77,2.17-16.95,20.83-16.95,20.83-1.01,1.26-1.16,2.48-1.16,3.48v.08c0,3.87.78,5.49,5.49,5.49h26.85v-7.43h-15.79c-1.03,0-1.44,0-1.71-.64-.24-.69.21-1.23,1.01-2.19l16.49-20.35v-7.43h-32.32Z"/>
    <path class="st1" d="M101.77,263.67v-8.8h-11.3v-6.34h15.73v-8.18h-26.41v30.27c0,4.46.01,7.57,4.8,7.57h21.61v-8.17h-13.5c-.86,0-1.43-.16-1.75-.47-.43-.44-.53-1.28-.53-2.38,0-.39.06-3.29.06-3.5h11.3Z"/>
    <path class="st1" d="M206.75,263.67v-8.8h-11.31v-6.34h15.74v-8.18h-26.41v30.27c0,4.46.01,7.57,4.8,7.57h21.61v-8.17h-13.5c-.86,0-1.44-.16-1.75-.47-.43-.44-.53-1.28-.53-2.38,0-.39.05-3.29.05-3.5h11.31Z"/>
    <path class="st1" d="M146.66,240.37l-.03,29.49c0,4.66.54,8.25,7.27,8.45,1.95.07,6.18.13,9.31.02,15.3,0,18.52-9.85,18.52-18.76,0-18.5-14.17-19.21-18.51-19.21h-16.56ZM160.97,270.93c-3.27,0-3.64-2.35-3.64-5.76v-17h3.56c3.1,0,10.5,1.89,10.5,11.48,0,10.13-7.11,11.27-10.43,11.27"/>
    <path class="st1" d="M257.49,268.39c0-5.56,4.45-10.02,10.02-10.02s10.02,4.46,10.02,10.02-4.45,9.97-10.02,9.97-10.02-4.46-10.02-9.97M275.54,268.39c0-4.58-3.58-8.31-8.03-8.31s-8.03,3.72-8.03,8.31,3.58,8.25,8.03,8.25,8.03-3.72,8.03-8.25M263.89,263.4c.88-.11,1.99-.17,3.1-.17,3.16,0,4.52,1.43,4.52,3.38,0,1.14-.65,2.24-1.76,2.87l2.4,3.79h-2.87l-1.76-3.16h-1.11v3.16h-2.51v-9.87ZM266.4,268.05c.29.06.53.06.71.06,1.05,0,1.75-.52,1.75-1.43,0-.86-.64-1.26-1.64-1.26-.29,0-.53,0-.82.06v2.58Z"/>
    <path class="st1" d="M115.2,233.37c-1.56.47-4.52,1.12-7.48,1.12-4.09,0-7.05-.91-9.11-2.69-2.06-1.71-3.19-4.31-3.16-7.23.03-6.62,5.45-10.4,12.8-10.4,2.89,0,5.12.5,6.21.98l-1.06,3.6c-1.23-.47-2.76-.86-5.22-.86-4.22,0-7.41,2.13-7.41,6.44s2.89,6.53,7.05,6.53c1.16,0,2.1-.12,2.49-.29v-4.17h-3.46v-3.51h8.35v10.49Z"/>
    <path class="st1" d="M117.63,214.64c1.63-.24,4.06-.42,6.75-.42,3.32,0,5.64.44,7.24,1.57,1.34.94,2.06,2.33,2.06,4.16,0,2.54-2.02,4.28-3.96,4.91v.08c1.57.57,2.43,1.89,2.99,3.72.7,2.24,1.4,4.84,1.83,5.62h-5.18c-.37-.57-.9-2.19-1.56-4.64-.6-2.48-1.56-3.16-3.63-3.19h-1.52v7.83h-5.02v-19.64ZM122.65,223.21h1.99c2.53,0,4.02-1.12,4.02-2.87s-1.4-2.74-3.72-2.77c-1.23,0-1.93.09-2.29.14v5.49Z"/>
    <path class="st1" d="M140.36,214.38v11.46c0,3.43,1.46,5.17,4.05,5.17s4.12-1.66,4.12-5.17v-11.46h5.05v11.17c0,6.14-3.49,9.06-9.33,9.06s-8.98-2.77-8.98-9.12v-11.11h5.09Z"/>
    <path class="st1" d="M156.11,214.64c1.56-.24,3.76-.42,6.85-.42s5.35.53,6.85,1.6c1.43,1,2.39,2.66,2.39,4.61s-.73,3.6-2.06,4.72c-1.73,1.45-4.28,2.1-7.28,2.1-.67,0-1.26-.03-1.73-.09v7.12h-5.02v-19.64ZM161.13,223.68c.43.09.96.12,1.7.12,2.69,0,4.36-1.21,4.36-3.25,0-1.83-1.44-2.92-3.96-2.92-1.03,0-1.72.09-2.09.18v5.88Z"/>
    <path class="st1" d="M194.17,224.12c0,6.53-4.45,10.49-11,10.49s-10.54-4.46-10.54-10.13c0-5.97,4.29-10.43,10.9-10.43s10.64,4.58,10.64,10.07M177.99,224.39c0,3.9,2.06,6.65,5.45,6.65s5.38-2.89,5.38-6.76c0-3.58-1.93-6.65-5.42-6.65s-5.42,2.89-5.42,6.76"/>
    <path class="st1" d="M144.82,178.13C88.89,178.13,38.02,189.42,0,207.87c2.87,1.39,5.65,2.82,8.35,4.29,41.26-10.47,87.54-16.36,136.46-16.36s95.21,5.89,136.46,16.36c2.71-1.47,5.48-2.9,8.34-4.29-38.01-18.45-88.88-29.74-144.81-29.74"/>
  </g>
</svg>