<?xml version="1.0" encoding="UTF-8"?>
<svg id="Layer_1" xmlns="http://www.w3.org/2000/svg" version="1.1" viewBox="0 0 139.05 91.8">
  <!-- Generator: Adobe Illustrator 29.3.0, SVG Export Plug-In . SVG Version: 2.1.0 Build 146)  -->
  <defs>
    <style>
      .st0 {
        fill: #fff;
      }
    </style>
  </defs>
  <path class="st0" d="M.97,2.92c.18-.58.45-1.09.82-1.53.36-.44.82-.78,1.37-1.02.55-.24,1.18-.37,1.9-.37.54,0,1.06.08,1.56.25.49.17.93.41,1.3.73.37.32.67.71.89,1.17.22.47.33.99.33,1.57s-.1,1.12-.29,1.55-.45.81-.77,1.15c-.32.33-.68.64-1.08.91-.4.27-.81.54-1.22.81s-.81.55-1.19.86c-.39.31-.73.66-1.02,1.07h5.63v2.08H.46c0-.69.1-1.29.3-1.8.2-.51.47-.97.81-1.37.34-.4.74-.77,1.2-1.11.46-.34.94-.69,1.45-1.04.26-.18.54-.37.83-.55.29-.19.56-.39.81-.62.24-.23.45-.48.61-.77.16-.28.25-.61.25-.97,0-.58-.17-1.03-.5-1.35-.33-.32-.76-.49-1.28-.49-.35,0-.65.08-.89.25-.24.16-.44.38-.59.65-.15.27-.25.56-.31.88s-.09.64-.09.96H.73c-.02-.68.06-1.31.24-1.9Z"/>
  <path class="st0" d="M14.02,3.22c.23-.79.55-1.42.94-1.9.4-.48.86-.82,1.39-1.02s1.09-.31,1.68-.31,1.17.1,1.69.31.99.54,1.4,1.02c.4.48.72,1.11.95,1.9s.35,1.76.35,2.92-.12,2.19-.35,2.99-.55,1.44-.95,1.91c-.4.48-.87.82-1.4,1.02s-1.09.31-1.69.31-1.15-.1-1.68-.31-.99-.54-1.39-1.02c-.4-.48-.71-1.11-.94-1.91-.23-.8-.35-1.79-.35-2.99s.12-2.13.35-2.92ZM16.12,7.37c.02.48.09.95.21,1.39.12.45.31.83.57,1.15s.64.48,1.12.48.88-.16,1.15-.48.46-.7.58-1.15c.12-.45.19-.91.21-1.39.02-.48.03-.89.03-1.23,0-.2,0-.45,0-.74,0-.29-.03-.59-.07-.89-.04-.31-.1-.61-.17-.91-.07-.3-.18-.57-.33-.81s-.33-.43-.56-.58c-.23-.15-.5-.22-.83-.22s-.6.07-.83.22c-.22.15-.4.34-.54.58s-.25.51-.33.81c-.08.3-.14.6-.17.91-.03.31-.05.6-.06.89,0,.29,0,.54,0,.74,0,.34.01.75.03,1.23Z"/>
  <path class="st0" d="M27.2,2.92c.18-.58.45-1.09.82-1.53.36-.44.82-.78,1.37-1.02.55-.24,1.18-.37,1.9-.37.54,0,1.06.08,1.56.25.49.17.93.41,1.3.73.37.32.67.71.89,1.17.22.47.33.99.33,1.57s-.1,1.12-.29,1.55-.45.81-.77,1.15c-.32.33-.68.64-1.08.91-.4.27-.81.54-1.22.81s-.81.55-1.19.86c-.39.31-.73.66-1.02,1.07h5.63v2.08h-8.74c0-.69.1-1.29.3-1.8.2-.51.47-.97.81-1.37.34-.4.74-.77,1.2-1.11.46-.34.94-.69,1.45-1.04.26-.18.54-.37.83-.55.29-.19.56-.39.81-.62.24-.23.45-.48.61-.77.16-.28.25-.61.25-.97,0-.58-.17-1.03-.5-1.35-.33-.32-.76-.49-1.28-.49-.35,0-.65.08-.89.25-.24.16-.44.38-.59.65-.15.27-.25.56-.31.88s-.09.64-.09.96h-2.31c-.02-.68.06-1.31.24-1.9Z"/>
  <path class="st0" d="M39.54,9.39v-2.21L44.71.24h2.16v7.16h1.58v1.99h-1.58v2.76h-2.3v-2.76h-5.04ZM44.52,3.27l-3.08,4.13h3.13V3.27h-.05Z"/>
  <path class="st0" d="M3.95,26.46v12.15H1.28v-12.15h2.67Z"/>
  <path class="st0" d="M12.42,26.46l5.07,8.15h.03v-8.15h2.5v12.15h-2.67l-5.05-8.13h-.03v8.13h-2.5v-12.15h2.65Z"/>
  <path class="st0" d="M24.75,28.71v-2.25h9.95v2.25h-3.64v9.9h-2.67v-9.9h-3.64Z"/>
  <path class="st0" d="M48.51,26.46v2.25h-6.41v2.6h5.89v2.08h-5.89v2.98h6.55v2.25h-9.22v-12.15h9.08Z"/>
  <path class="st0" d="M60.97,38.51c-.58.24-1.16.37-1.75.37-.93,0-1.77-.16-2.51-.48s-1.37-.77-1.88-1.33c-.51-.57-.9-1.23-1.17-2-.27-.77-.41-1.59-.41-2.47s.14-1.75.41-2.53c.27-.78.66-1.45,1.17-2.03.51-.58,1.14-1.03,1.88-1.36s1.58-.49,2.51-.49c.62,0,1.23.09,1.81.28.58.19,1.11.46,1.58.83.47.36.86.81,1.17,1.34.31.53.49,1.15.56,1.84h-2.55c-.16-.68-.47-1.19-.92-1.53-.45-.34-1-.51-1.65-.51-.6,0-1.11.12-1.53.35s-.76.54-1.02.94c-.26.39-.45.84-.57,1.34s-.18,1.01-.18,1.55.06,1.01.18,1.49c.12.48.31.92.57,1.3.26.39.6.7,1.02.93s.93.35,1.53.35c.88,0,1.57-.22,2.05-.67.48-.45.76-1.1.84-1.95h-2.69v-1.99h5.1v6.57h-1.7l-.27-1.38c-.48.61-1,1.04-1.58,1.28Z"/>
  <path class="st0" d="M76.73,26.46c.54,0,1.03.09,1.47.26s.81.42,1.12.72c.31.31.55.66.71,1.06.16.4.25.84.25,1.3,0,.71-.15,1.33-.45,1.85s-.79.92-1.47,1.19v.03c.33.09.6.23.82.42s.39.41.53.66c.14.26.24.54.3.84.06.31.1.61.13.92.01.19.02.42.03.68.01.26.03.53.06.8.03.27.07.53.14.77s.16.45.28.62h-2.67c-.15-.39-.24-.84-.27-1.38-.03-.53-.08-1.04-.15-1.53-.09-.63-.28-1.1-.58-1.39s-.78-.44-1.45-.44h-2.67v4.75h-2.67v-12.15h6.55ZM75.78,31.95c.61,0,1.07-.14,1.38-.41s.46-.71.46-1.33-.15-1.02-.46-1.29c-.31-.27-.77-.4-1.38-.4h-2.93v3.42h2.93Z"/>
  <path class="st0" d="M92.27,26.46l4.54,12.15h-2.77l-.92-2.71h-4.54l-.95,2.71h-2.69l4.59-12.15h2.74ZM92.42,33.91l-1.53-4.46h-.03l-1.58,4.46h3.15Z"/>
  <path class="st0" d="M99.06,28.71v-2.25h9.95v2.25h-3.64v9.9h-2.67v-9.9h-3.64Z"/>
  <path class="st0" d="M122.81,26.46v2.25h-6.41v2.6h5.89v2.08h-5.89v2.98h6.55v2.25h-9.22v-12.15h9.08Z"/>
  <path class="st0" d="M133.54,26.46c.78,0,1.51.12,2.19.37.67.25,1.26.62,1.75,1.12s.88,1.12,1.16,1.87.42,1.63.42,2.64c0,.88-.11,1.7-.34,2.45-.23.75-.57,1.39-1.03,1.94-.46.54-1.03.97-1.72,1.28-.69.31-1.49.47-2.42.47h-5.24v-12.15h5.24ZM133.35,36.36c.39,0,.76-.06,1.12-.19s.69-.33.97-.62c.28-.29.51-.67.68-1.13.17-.46.26-1.03.26-1.7,0-.61-.06-1.17-.18-1.66s-.31-.92-.59-1.27c-.27-.35-.63-.62-1.08-.81-.45-.19-1-.28-1.66-.28h-1.91v7.66h2.38Z"/>
  <path class="st0" d="M7.33,52.92l4.54,12.15h-2.77l-.92-2.71H3.64l-.95,2.71H0l4.59-12.15h2.74ZM7.48,60.37l-1.53-4.46h-.03l-1.58,4.46h3.15Z"/>
  <path class="st0" d="M19.08,52.92l5.07,8.15h.03v-8.15h2.5v12.15h-2.67l-5.05-8.13h-.03v8.13h-2.5v-12.15h2.65Z"/>
  <path class="st0" d="M35.16,52.92l5.07,8.15h.03v-8.15h2.5v12.15h-2.67l-5.05-8.13h-.03v8.13h-2.5v-12.15h2.65Z"/>
  <path class="st0" d="M57.51,64.14c-.92.8-2.19,1.2-3.81,1.2s-2.92-.4-3.82-1.19c-.9-.79-1.35-2.02-1.35-3.67v-7.55h2.67v7.55c0,.33.03.65.08.97.06.32.18.6.36.84.18.24.43.44.76.6.32.15.76.23,1.3.23.95,0,1.61-.21,1.97-.64.36-.42.54-1.09.54-2v-7.55h2.67v7.55c0,1.64-.46,2.87-1.38,3.67Z"/>
  <path class="st0" d="M70.2,52.92l4.54,12.15h-2.77l-.92-2.71h-4.54l-.95,2.71h-2.69l4.59-12.15h2.74ZM70.35,60.37l-1.53-4.46h-.03l-1.58,4.46h3.15Z"/>
  <path class="st0" d="M81.97,52.92v9.9h5.92v2.25h-8.59v-12.15h2.67Z"/>
  <path class="st0" d="M7.82,79.38c.54,0,1.03.09,1.47.26s.81.42,1.12.72c.31.31.55.66.71,1.06.16.4.25.84.25,1.3,0,.71-.15,1.33-.45,1.85s-.79.92-1.47,1.19v.03c.33.09.6.23.82.42s.39.41.53.66c.14.26.24.54.3.84.06.31.1.61.13.92.01.19.02.42.03.68.01.26.03.53.06.8.03.27.07.53.14.77s.16.45.28.62h-2.67c-.15-.39-.24-.84-.27-1.38-.03-.53-.08-1.04-.15-1.53-.09-.63-.28-1.1-.58-1.39s-.78-.44-1.45-.44h-2.67v4.75H1.28v-12.15h6.55ZM6.87,84.87c.61,0,1.07-.14,1.38-.41s.46-.71.46-1.33-.15-1.02-.46-1.29c-.31-.27-.77-.4-1.38-.4h-2.93v3.42h2.93Z"/>
  <path class="st0" d="M26.06,79.38v2.25h-6.41v2.6h5.89v2.08h-5.89v2.98h6.55v2.25h-9.22v-12.15h9.08Z"/>
  <path class="st0" d="M37.03,79.38c.76,0,1.41.11,1.94.33.53.22.97.51,1.3.88s.58.78.73,1.24c.15.47.23.95.23,1.45s-.08.97-.23,1.44c-.15.47-.4.89-.73,1.25s-.77.66-1.3.88c-.53.22-1.18.33-1.94.33h-2.81v4.35h-2.67v-12.15h5.48ZM36.29,85.1c.31,0,.6-.02.88-.07.28-.04.53-.13.75-.26.22-.13.39-.31.52-.55s.2-.55.2-.94-.07-.7-.2-.94-.3-.42-.52-.55c-.22-.13-.46-.22-.75-.26-.28-.04-.58-.07-.88-.07h-2.08v3.64h2.08Z"/>
  <path class="st0" d="M46.16,82.98c.27-.78.66-1.45,1.17-2.03.51-.58,1.14-1.03,1.88-1.36s1.58-.49,2.51-.49,1.78.16,2.52.49,1.36.78,1.87,1.36c.51.58.9,1.26,1.17,2.03.27.78.41,1.62.41,2.53s-.14,1.71-.41,2.47-.66,1.43-1.17,2c-.51.57-1.13,1.01-1.87,1.33s-1.58.48-2.52.48-1.77-.16-2.51-.48-1.37-.77-1.88-1.33c-.51-.57-.9-1.23-1.17-2-.27-.77-.41-1.59-.41-2.47s.14-1.75.41-2.53ZM48.61,86.99c.12.48.31.92.57,1.3.26.39.6.7,1.02.93s.93.35,1.53.35,1.11-.12,1.53-.35c.42-.23.76-.54,1.02-.93.26-.38.45-.82.57-1.3.12-.48.18-.98.18-1.49s-.06-1.05-.18-1.55-.31-.94-.57-1.34c-.26-.39-.6-.7-1.02-.94-.42-.23-.93-.35-1.53-.35s-1.11.12-1.53.35-.76.54-1.02.94c-.26.39-.45.84-.57,1.34s-.18,1.01-.18,1.55.06,1.01.18,1.49Z"/>
  <path class="st0" d="M69.49,79.38c.54,0,1.03.09,1.47.26s.81.42,1.12.72c.31.31.55.66.71,1.06.16.4.25.84.25,1.3,0,.71-.15,1.33-.45,1.85s-.79.92-1.47,1.19v.03c.33.09.6.23.82.42s.39.41.53.66c.14.26.24.54.3.84.06.31.1.61.13.92.01.19.02.42.03.68.01.26.03.53.06.8.03.27.07.53.14.77s.16.45.28.62h-2.67c-.15-.39-.24-.84-.27-1.38-.03-.53-.08-1.04-.15-1.53-.09-.63-.28-1.1-.58-1.39s-.78-.44-1.45-.44h-2.67v4.75h-2.67v-12.15h6.55ZM68.54,84.87c.61,0,1.07-.14,1.38-.41s.46-.71.46-1.33-.15-1.02-.46-1.29c-.31-.27-.77-.4-1.38-.4h-2.93v3.42h2.93Z"/>
  <path class="st0" d="M77.62,81.62v-2.25h9.95v2.25h-3.64v9.9h-2.67v-9.9h-3.64Z"/>
</svg>