<?xml version="1.0" encoding="UTF-8"?>
<svg id="Layer_1" xmlns="http://www.w3.org/2000/svg" version="1.1" viewBox="0 0 127.47 92.04">
  <!-- Generator: Adobe Illustrator 29.3.0, SVG Export Plug-In . SVG Version: 2.1.0 Build 146)  -->
  <defs>
    <style>
      .st0 {
        fill: #fff;
      }
    </style>
  </defs>
  <path class="st0" d="M17.28.29v12.15h-2.67V.29h2.67Z"/>
  <path class="st0" d="M25.76.29l5.07,8.15h.03V.29h2.5v12.15h-2.67l-5.05-8.13h-.03v8.13h-2.5V.29h2.65Z"/>
  <path class="st0" d="M47.72.29v2.25h-5.87v2.81h5.09v2.08h-5.09v5.02h-2.67V.29h8.54Z"/>
  <path class="st0" d="M52.27,3.89c.27-.78.66-1.45,1.17-2.03.51-.58,1.14-1.03,1.88-1.36s1.58-.49,2.51-.49,1.78.16,2.52.49,1.36.78,1.87,1.36c.51.58.9,1.26,1.17,2.03s.41,1.62.41,2.53-.14,1.71-.41,2.48c-.27.77-.66,1.43-1.17,2s-1.13,1.01-1.87,1.34c-.74.32-1.58.48-2.52.48s-1.77-.16-2.51-.48c-.74-.32-1.37-.77-1.88-1.34-.51-.57-.9-1.23-1.17-2-.27-.77-.41-1.59-.41-2.48s.14-1.75.41-2.53ZM54.71,7.9c.12.48.31.92.57,1.3.26.39.6.69,1.02.93s.93.35,1.53.35,1.11-.12,1.53-.35c.42-.23.76-.54,1.02-.93.26-.39.45-.82.57-1.3s.18-.98.18-1.49-.06-1.05-.18-1.55-.31-.94-.57-1.34c-.26-.39-.6-.7-1.02-.94-.42-.23-.93-.35-1.53-.35s-1.11.12-1.53.35-.76.54-1.02.94c-.26.39-.45.84-.57,1.34s-.18,1.02-.18,1.55.06,1.01.18,1.49Z"/>
  <path class="st0" d="M75.6.29c.54,0,1.03.09,1.47.26s.81.42,1.12.72.55.66.71,1.06c.16.4.25.84.25,1.3,0,.71-.15,1.33-.45,1.85s-.79.92-1.47,1.19v.03c.33.09.6.23.82.42.22.19.39.41.53.66.14.26.24.54.3.84.06.31.1.61.13.92.01.19.02.42.03.68.01.26.03.53.06.8.03.27.07.53.14.77.06.24.16.45.28.62h-2.67c-.15-.39-.24-.84-.27-1.38-.03-.53-.08-1.04-.15-1.53-.09-.63-.28-1.1-.58-1.4-.29-.29-.78-.44-1.45-.44h-2.67v4.75h-2.67V.29h6.55ZM74.64,5.78c.61,0,1.07-.14,1.38-.41.31-.27.46-.71.46-1.33s-.15-1.02-.46-1.28c-.31-.27-.77-.4-1.38-.4h-2.93v3.42h2.93Z"/>
  <path class="st0" d="M88.51.29l2.84,8.35h.03l2.69-8.35h3.76v12.15h-2.5V3.83h-.03l-2.98,8.61h-2.06l-2.98-8.52h-.03v8.52h-2.5V.29h3.76Z"/>
  <path class="st0" d="M112.74.29v2.25h-6.41v2.6h5.89v2.08h-5.89v2.98h6.55v2.25h-9.22V.29h9.08Z"/>
  <path class="st0" d="M34.69,26.75l4.54,12.15h-2.77l-.92-2.7h-4.54l-.95,2.7h-2.69l4.59-12.15h2.74ZM34.84,34.2l-1.53-4.46h-.03l-1.58,4.46h3.15Z"/>
  <path class="st0" d="M46.44,26.75l5.07,8.15h.03v-8.15h2.5v12.15h-2.67l-5.05-8.13h-.03v8.13h-2.5v-12.15h2.65Z"/>
  <path class="st0" d="M68.79,37.97c-.92.8-2.19,1.2-3.81,1.2s-2.92-.4-3.82-1.19c-.9-.79-1.35-2.02-1.35-3.67v-7.55h2.67v7.55c0,.33.03.65.08.97.06.32.18.6.36.84.18.24.43.44.76.6.32.15.76.23,1.3.23.95,0,1.61-.21,1.97-.64.36-.42.54-1.09.54-2v-7.55h2.67v7.55c0,1.64-.46,2.87-1.38,3.67Z"/>
  <path class="st0" d="M81.48,26.75l4.54,12.15h-2.77l-.92-2.7h-4.54l-.95,2.7h-2.69l4.59-12.15h2.74ZM81.63,34.2l-1.53-4.46h-.03l-1.58,4.46h3.15Z"/>
  <path class="st0" d="M93.24,26.75v9.9h5.92v2.25h-8.59v-12.15h2.67Z"/>
  <path class="st0" d="M2.67,53.21v12.15H0v-12.15h2.67Z"/>
  <path class="st0" d="M11.15,53.21l5.07,8.15h.03v-8.15h2.5v12.15h-2.67l-5.05-8.13h-.03v8.13h-2.5v-12.15h2.65Z"/>
  <path class="st0" d="M23.47,55.45v-2.25h9.95v2.25h-3.64v9.9h-2.67v-9.9h-3.64Z"/>
  <path class="st0" d="M47.23,53.21v2.25h-6.41v2.6h5.89v2.08h-5.89v2.98h6.55v2.25h-9.22v-12.15h9.08Z"/>
  <path class="st0" d="M59.69,65.26c-.58.24-1.16.37-1.75.37-.93,0-1.77-.16-2.51-.48-.74-.32-1.37-.77-1.88-1.34-.51-.57-.9-1.23-1.17-2-.27-.77-.41-1.59-.41-2.48s.14-1.75.41-2.53c.27-.78.66-1.45,1.17-2.03.51-.58,1.14-1.03,1.88-1.36s1.58-.49,2.51-.49c.62,0,1.23.09,1.81.28.58.19,1.11.46,1.58.83s.86.81,1.17,1.34c.31.53.49,1.15.56,1.84h-2.55c-.16-.68-.47-1.19-.92-1.53-.45-.34-1-.51-1.65-.51-.6,0-1.11.12-1.53.35s-.76.54-1.02.94c-.26.39-.45.84-.57,1.34s-.18,1.02-.18,1.55.06,1.01.18,1.49.31.92.57,1.3c.26.39.6.69,1.02.93s.93.35,1.53.35c.88,0,1.57-.22,2.05-.67s.76-1.1.84-1.95h-2.69v-1.99h5.1v6.57h-1.7l-.27-1.38c-.48.61-1,1.04-1.58,1.28Z"/>
  <path class="st0" d="M75.46,53.21c.54,0,1.03.09,1.47.26s.81.42,1.12.72.55.66.71,1.06c.16.4.25.84.25,1.3,0,.71-.15,1.33-.45,1.85s-.79.92-1.47,1.19v.03c.33.09.6.23.82.42.22.19.39.41.53.66.14.26.24.54.3.84.06.31.1.61.13.92.01.19.02.42.03.68.01.26.03.53.06.8.03.27.07.53.14.77.06.24.16.45.28.62h-2.67c-.15-.39-.24-.84-.27-1.38-.03-.53-.08-1.04-.15-1.53-.09-.63-.28-1.1-.58-1.4-.29-.29-.78-.44-1.45-.44h-2.67v4.75h-2.67v-12.15h6.55ZM74.5,58.7c.61,0,1.07-.14,1.38-.41.31-.27.46-.71.46-1.33s-.15-1.02-.46-1.28c-.31-.27-.77-.4-1.38-.4h-2.93v3.42h2.93Z"/>
  <path class="st0" d="M90.99,53.21l4.54,12.15h-2.77l-.92-2.7h-4.54l-.95,2.7h-2.69l4.59-12.15h2.74ZM91.15,60.66l-1.53-4.46h-.03l-1.58,4.46h3.15Z"/>
  <path class="st0" d="M105.33,53.21c.78,0,1.51.12,2.19.37.67.25,1.26.62,1.75,1.12.49.5.88,1.12,1.16,1.87.28.75.42,1.63.42,2.64,0,.88-.11,1.7-.34,2.45-.23.75-.57,1.4-1.03,1.94s-1.03.97-1.72,1.28c-.69.31-1.49.47-2.42.47h-5.24v-12.15h5.24ZM105.14,63.11c.39,0,.76-.06,1.12-.19.36-.12.69-.33.97-.62.28-.29.51-.67.68-1.13.17-.46.26-1.03.26-1.7,0-.61-.06-1.17-.18-1.66s-.31-.92-.59-1.27c-.27-.35-.63-.62-1.08-.81s-1-.28-1.66-.28h-1.91v7.65h2.38Z"/>
  <path class="st0" d="M115.94,56.81c.27-.78.66-1.45,1.17-2.03.51-.58,1.14-1.03,1.88-1.36s1.58-.49,2.51-.49,1.78.16,2.52.49,1.36.78,1.87,1.36c.51.58.9,1.26,1.17,2.03s.41,1.62.41,2.53-.14,1.71-.41,2.48c-.27.77-.66,1.43-1.17,2s-1.13,1.01-1.87,1.34c-.74.32-1.58.48-2.52.48s-1.77-.16-2.51-.48c-.74-.32-1.37-.77-1.88-1.34-.51-.57-.9-1.23-1.17-2-.27-.77-.41-1.59-.41-2.48s.14-1.75.41-2.53ZM118.38,60.82c.12.48.31.92.57,1.3.26.39.6.69,1.02.93s.93.35,1.53.35,1.11-.12,1.53-.35c.42-.23.76-.54,1.02-.93.26-.39.45-.82.57-1.3s.18-.98.18-1.49-.06-1.05-.18-1.55-.31-.94-.57-1.34c-.26-.39-.6-.7-1.02-.94-.42-.23-.93-.35-1.53-.35s-1.11.12-1.53.35-.76.54-1.02.94c-.26.39-.45.84-.57,1.34s-.18,1.02-.18,1.55.06,1.01.18,1.49Z"/>
  <path class="st0" d="M40.03,82.59c.18-.58.45-1.09.82-1.53.36-.44.82-.78,1.37-1.02.55-.24,1.18-.37,1.9-.37.54,0,1.06.08,1.56.25.49.17.93.41,1.3.73.37.32.67.71.89,1.17.22.47.33.99.33,1.56s-.1,1.12-.29,1.55c-.19.43-.45.81-.77,1.15s-.68.64-1.08.91c-.4.27-.81.54-1.22.81-.41.27-.81.55-1.19.86-.39.31-.73.66-1.02,1.07h5.63v2.08h-8.74c0-.69.1-1.29.3-1.8s.47-.97.81-1.37c.34-.4.74-.77,1.2-1.11.46-.34.94-.69,1.45-1.04.26-.18.54-.37.83-.55s.56-.39.81-.62c.24-.23.45-.48.61-.77.16-.28.25-.61.25-.97,0-.58-.17-1.03-.5-1.35-.33-.32-.76-.48-1.28-.48-.35,0-.65.08-.89.25-.24.16-.44.38-.59.65-.15.27-.25.56-.31.88s-.09.64-.09.96h-2.31c-.02-.68.06-1.31.24-1.9Z"/>
  <path class="st0" d="M53.07,82.89c.23-.79.55-1.42.94-1.9s.86-.82,1.39-1.02,1.09-.31,1.68-.31,1.17.1,1.69.31.99.54,1.4,1.02c.4.48.72,1.11.95,1.9.23.79.35,1.76.35,2.92s-.12,2.19-.35,2.99c-.23.8-.55,1.44-.95,1.91-.4.48-.87.82-1.4,1.02s-1.09.31-1.69.31-1.15-.1-1.68-.31-.99-.54-1.39-1.02c-.4-.48-.71-1.11-.94-1.91-.23-.8-.35-1.79-.35-2.99s.12-2.13.35-2.92ZM55.18,87.04c.02.48.09.95.21,1.4.12.45.31.83.57,1.15.26.32.64.48,1.12.48s.88-.16,1.15-.48c.27-.32.46-.7.58-1.15.12-.45.19-.91.21-1.4.02-.48.03-.89.03-1.23,0-.2,0-.45,0-.74,0-.29-.03-.59-.07-.89-.04-.31-.1-.61-.17-.91-.07-.3-.18-.57-.33-.81s-.33-.43-.56-.58c-.23-.15-.5-.22-.83-.22s-.6.07-.83.22c-.22.15-.4.34-.54.58s-.25.51-.33.81c-.08.3-.14.6-.17.91-.03.31-.05.6-.06.89,0,.29,0,.54,0,.74,0,.34.01.75.03,1.23Z"/>
  <path class="st0" d="M66.26,82.59c.18-.58.45-1.09.82-1.53.36-.44.82-.78,1.37-1.02.55-.24,1.18-.37,1.9-.37.54,0,1.06.08,1.56.25.49.17.93.41,1.3.73.37.32.67.71.89,1.17.22.47.33.99.33,1.56s-.1,1.12-.29,1.55c-.19.43-.45.81-.77,1.15s-.68.64-1.08.91c-.4.27-.81.54-1.22.81-.41.27-.81.55-1.19.86-.39.31-.73.66-1.02,1.07h5.63v2.08h-8.74c0-.69.1-1.29.3-1.8s.47-.97.81-1.37c.34-.4.74-.77,1.2-1.11.46-.34.94-.69,1.45-1.04.26-.18.54-.37.83-.55s.56-.39.81-.62c.24-.23.45-.48.61-.77.16-.28.25-.61.25-.97,0-.58-.17-1.03-.5-1.35-.33-.32-.76-.48-1.28-.48-.35,0-.65.08-.89.25-.24.16-.44.38-.59.65-.15.27-.25.56-.31.88s-.09.64-.09.96h-2.31c-.02-.68.06-1.31.24-1.9Z"/>
  <path class="st0" d="M78.6,89.06v-2.21l5.17-6.94h2.16v7.16h1.58v1.99h-1.58v2.76h-2.3v-2.76h-5.04ZM83.58,82.93l-3.08,4.13h3.13v-4.13h-.05Z"/>
</svg>