<?xml version="1.0" encoding="UTF-8"?>
<svg id="Layer_1" xmlns="http://www.w3.org/2000/svg" version="1.1" viewBox="0 0 642.51 315.65">
  <!-- Generator: Adobe Illustrator 29.3.0, SVG Export Plug-In . SVG Version: 2.1.0 Build 146)  -->
  <defs>
    <style>
      .st0 {
        fill: #802629;
      }
    </style>
  </defs>
  <path class="st0" d="M0,123.68C0,84.04,8.72,53.51,26.16,32.11,43.6,10.7,68.52,0,100.91,0c16.99,0,31.82,2.95,44.51,8.83,12.68,5.89,23.22,14.27,31.6,25.14,8.38,10.87,14.61,23.9,18.69,39.07,4.08,15.18,6.12,32.06,6.12,50.63,0,39.64-8.78,70.16-26.33,91.57-17.56,21.41-42.42,32.11-74.58,32.11-17.22,0-32.17-2.95-44.85-8.83-12.69-5.89-23.16-14.27-31.43-25.14-8.27-10.87-14.44-23.9-18.52-39.07-4.08-15.17-6.12-32.05-6.12-50.63ZM48.93,123.68c0,12.01,1.02,23.05,3.06,33.13,2.04,10.08,5.15,18.75,9.34,25.99,4.19,7.25,9.57,12.91,16.14,16.99,6.57,4.08,14.38,6.12,23.44,6.12,16.53,0,29.33-6.46,38.39-19.37,9.06-12.91,13.59-33.86,13.59-62.86,0-11.55-.97-22.31-2.89-32.28-1.93-9.96-4.93-18.69-9-26.16-4.08-7.48-9.4-13.3-15.97-17.5-6.57-4.19-14.61-6.29-24.12-6.29-16.54,0-29.34,6.62-38.39,19.88-9.06,13.25-13.59,34.04-13.59,62.35ZM225.61,311.2c-10.87,2.97-21.86,4.45-32.96,4.45s-22.76-1.19-33.64-3.57c-10.87-2.38-21.41-4.93-31.6-7.64-10.19-2.72-20.05-5.27-29.56-7.65-9.51-2.38-18.46-3.57-26.84-3.57-5.44,0-10.65.68-15.63,2.04v-40.09c6.34-1.36,12.91-2.04,19.71-2.04,9.51,0,18.97,1.12,28.37,3.34,9.4,2.23,18.97,4.62,28.71,7.19,9.74,2.56,19.71,4.96,29.9,7.19s20.95,3.34,32.28,3.34c4.98,0,10.08-.29,15.29-.85,5.21-.57,10.53-1.53,15.97-2.89v40.74Z"/>
  <path class="st0" d="M218.81,176.68c0-8.61,1.41-16.82,4.25-24.63,2.83-7.82,6.8-15.12,11.89-21.92,5.1-6.79,11.15-13.13,18.18-19.03,7.02-5.89,14.61-11.1,22.77-15.63-5.67-7.47-10.31-15.06-13.93-22.76-3.63-7.7-5.44-15.85-5.44-24.46,0-5.66,1.07-11.38,3.23-17.16,2.15-5.78,5.55-10.98,10.19-15.63,4.64-4.64,10.7-8.38,18.18-11.21,7.48-2.83,16.53-4.25,27.18-4.25s19.31,1.25,26.67,3.74c7.36,2.5,13.3,5.78,17.84,9.85,4.53,4.08,7.81,8.72,9.85,13.93,2.04,5.21,3.06,10.53,3.06,15.97,0,9.29-3.29,18.97-9.85,29.05-6.57,10.08-17.79,19.77-33.64,29.05,7.93,12.23,15.85,23.44,23.78,33.64,7.93,10.19,16.76,20.28,26.5,30.24,5.21-5.66,9.91-12.74,14.1-21.24,4.19-8.49,7.87-17.16,11.04-25.99l31.94,16.99c-1.36,4.08-3.23,8.55-5.61,13.42-2.38,4.87-4.99,9.8-7.82,14.78-2.83,4.98-5.72,9.68-8.66,14.1-2.95,4.42-5.66,8.21-8.15,11.38,7.25,6.57,13.59,11.72,19.03,15.46s10.98,7.19,16.65,10.36l-23.44,32.62c-6.34-2.95-12.86-6.85-19.54-11.72-6.68-4.87-13.31-10.47-19.88-16.82-8.15,7.48-18.35,14.1-30.58,19.88s-27.3,8.66-45.19,8.66c-11.78,0-22.82-1.59-33.13-4.76-10.31-3.17-19.26-7.81-26.84-13.93-7.59-6.12-13.59-13.53-18.01-22.25-4.42-8.72-6.63-18.63-6.63-29.73ZM352.69,191.97c-11.55-12-22.09-23.95-31.6-35.85s-17.79-23.16-24.8-33.81c-10.87,8.38-19.14,16.48-24.8,24.29-5.66,7.81-8.49,16.6-8.49,26.33,0,11.55,4.25,20.61,12.74,27.18,8.49,6.57,19.65,9.85,33.47,9.85,9.06,0,17.55-1.87,25.48-5.61,7.93-3.74,13.93-7.87,18.01-12.4ZM300.7,50.29c0,9.51,4.08,19.71,12.23,30.58,8.83-5.66,15.23-10.98,19.2-15.97,3.96-4.98,5.95-9.74,5.95-14.27,0-5.44-1.53-9.74-4.59-12.91-3.06-3.17-7.98-4.76-14.78-4.76-6.12,0-10.65,1.59-13.59,4.76-2.95,3.17-4.42,7.36-4.42,12.57Z"/>
  <path class="st0" d="M574.56,189.93h-73.05l-18.01,52.67h-46.55L522.57,3.06h34.32l85.62,239.54h-48.93l-19.03-52.67ZM513.4,152.56h50.97l-17.67-53-7.14-37.38h-1.7l-7.14,37.72-17.33,52.67Z"/>
</svg>