<?xml version="1.0" encoding="UTF-8"?>
<svg id="Layer_1" xmlns="http://www.w3.org/2000/svg" version="1.1" viewBox="0 0 749.65 124">
  <!-- Generator: Adobe Illustrator 29.3.0, SVG Export Plug-In . SVG Version: 2.1.0 Build 146)  -->
  <defs>
    <style>
      .st0 {
        isolation: isolate;
      }
    </style>
  </defs>
  <path class="st0" d="M55.78,2.82c5.64,0,10.79.5,15.44,1.49,4.65,1,8.63,2.63,11.95,4.9,3.32,2.27,5.89,5.29,7.72,9.05s2.74,8.41,2.74,13.94c0,5.98-1.36,10.96-4.07,14.94s-6.72,7.25-12.04,9.79c7.3,2.1,12.75,5.78,16.35,11.04,3.59,5.26,5.4,11.59,5.4,19.01,0,5.98-1.16,11.15-3.49,15.52-2.32,4.37-5.45,7.94-9.38,10.71s-8.41,4.81-13.45,6.14-10.21,1.99-15.52,1.99H0V2.82h55.78ZM52.46,50.8c4.65,0,8.47-1.1,11.45-3.32,2.99-2.21,4.48-5.81,4.48-10.79,0-2.76-.5-5.03-1.49-6.81-1-1.77-2.32-3.15-3.98-4.15s-3.57-1.69-5.73-2.07c-2.16-.39-4.4-.58-6.72-.58h-24.4v27.72h26.39ZM53.95,101.09c2.54,0,4.98-.25,7.3-.75s4.37-1.33,6.14-2.49c1.77-1.16,3.18-2.74,4.23-4.73,1.05-1.99,1.58-4.54,1.58-7.64,0-6.08-1.72-10.43-5.15-13.03s-7.97-3.9-13.61-3.9h-28.39v32.54h27.9Z"/>
  <path class="st0" d="M168.99,2.82l44.32,118.52h-27.06l-8.96-26.39h-44.32l-9.3,26.39h-26.23L142.26,2.82h26.73ZM170.48,75.53l-14.94-43.49h-.33l-15.44,43.49h30.71Z"/>
  <path class="st0" d="M245.01,2.82v96.61h57.77v21.91h-83.83V2.82h26.06Z"/>
  <path class="st0" d="M376.15,2.82l44.32,118.52h-27.06l-8.96-26.39h-44.32l-9.3,26.39h-26.23L349.43,2.82h26.73-.01ZM377.65,75.53l-14.94-43.49h-.33l-15.44,43.49h30.71Z"/>
  <path class="st0" d="M452.01,2.82l49.47,79.51h.33V2.82h24.4v118.52h-26.06l-49.3-79.35h-.33v79.35h-24.4V2.82h25.9-.01Z"/>
  <path class="st0" d="M619.18,34.45c-1.55-2.49-3.49-4.67-5.81-6.56-2.32-1.88-4.95-3.35-7.88-4.4s-6-1.58-9.21-1.58c-5.87,0-10.85,1.14-14.94,3.4-4.1,2.27-7.42,5.31-9.96,9.13-2.55,3.82-4.4,8.16-5.56,13.03s-1.74,9.91-1.74,15.11.58,9.82,1.74,14.53c1.16,4.7,3.01,8.94,5.56,12.7,2.54,3.76,5.86,6.78,9.96,9.05,4.09,2.27,9.07,3.4,14.94,3.4,7.97,0,14.19-2.43,18.67-7.3s7.22-11.29,8.22-19.26h25.23c-.66,7.42-2.38,14.11-5.15,20.09-2.77,5.98-6.42,11.07-10.96,15.27-4.54,4.21-9.85,7.42-15.94,9.63s-12.78,3.32-20.09,3.32c-9.08,0-17.24-1.58-24.49-4.73s-13.36-7.5-18.34-13.03c-4.98-5.53-8.8-12.04-11.45-19.5-2.66-7.47-3.98-15.52-3.98-24.15s1.33-17.07,3.98-24.65c2.66-7.58,6.47-14.19,11.45-19.84,4.98-5.64,11.09-10.07,18.34-13.28S587.18.02,596.26.02c6.53,0,12.7.94,18.51,2.82,5.81,1.88,11.01,4.62,15.6,8.22,4.59,3.6,8.38,8.05,11.37,13.36,2.99,5.31,4.87,11.4,5.64,18.26h-25.23c-.44-2.99-1.44-5.73-2.99-8.22h.02Z"/>
  <path class="st0" d="M748.32,2.82v21.91h-62.58v25.4h57.44v20.25h-57.44v29.05h63.91v21.91h-89.97V2.82h88.64Z"/>
</svg>