<?xml version="1.0" encoding="UTF-8"?>
<svg id="Layer_1" xmlns="http://www.w3.org/2000/svg" version="1.1" viewBox="0 0 1059.31 124">
  <!-- Generator: Adobe Illustrator 29.3.0, SVG Export Plug-In . SVG Version: 2.1.0 Build 146)  -->
  <defs>
    <style>
      .st0 {
        fill: #231f20;
      }
    </style>
  </defs>
  <path class="st0" d="M81.17,34.45c-1.55-2.49-3.49-4.67-5.81-6.56-2.32-1.88-4.95-3.35-7.88-4.4-2.93-1.05-6-1.58-9.21-1.58-5.87,0-10.85,1.14-14.94,3.4-4.1,2.27-7.42,5.31-9.96,9.13-2.55,3.82-4.4,8.16-5.56,13.03-1.16,4.87-1.74,9.91-1.74,15.11s.58,9.82,1.74,14.53c1.16,4.7,3.01,8.94,5.56,12.7,2.54,3.76,5.86,6.78,9.96,9.05,4.09,2.27,9.07,3.4,14.94,3.4,7.97,0,14.19-2.43,18.67-7.3,4.48-4.87,7.22-11.29,8.22-19.26h25.23c-.66,7.42-2.38,14.11-5.15,20.09-2.77,5.98-6.42,11.07-10.96,15.27-4.54,4.21-9.85,7.42-15.94,9.63-6.09,2.21-12.78,3.32-20.09,3.32-9.08,0-17.24-1.58-24.49-4.73-7.25-3.15-13.36-7.5-18.34-13.03-4.98-5.53-8.8-12.04-11.45-19.5-2.66-7.47-3.98-15.52-3.98-24.15s1.33-17.07,3.98-24.65c2.66-7.58,6.47-14.19,11.45-19.84s11.09-10.07,18.34-13.28C41.03,1.61,49.19,0,58.27,0c6.53,0,12.7.94,18.51,2.82,5.81,1.88,11.01,4.62,15.6,8.22,4.59,3.6,8.38,8.05,11.37,13.36,2.99,5.31,4.87,11.4,5.64,18.26h-25.23c-.44-2.99-1.44-5.73-2.99-8.22Z"/>
  <path class="st0" d="M120.35,37.93c2.66-7.58,6.47-14.19,11.45-19.84s11.09-10.07,18.34-13.28c7.25-3.21,15.41-4.81,24.49-4.81s17.37,1.61,24.57,4.81c7.19,3.21,13.28,7.64,18.26,13.28s8.8,12.26,11.45,19.84c2.66,7.58,3.98,15.8,3.98,24.65s-1.33,16.68-3.98,24.15c-2.66,7.47-6.47,13.97-11.45,19.5-4.98,5.54-11.07,9.88-18.26,13.03-7.2,3.15-15.38,4.73-24.57,4.73s-17.24-1.58-24.49-4.73c-7.25-3.15-13.36-7.5-18.34-13.03-4.98-5.53-8.8-12.04-11.45-19.5-2.66-7.47-3.98-15.52-3.98-24.15s1.33-17.07,3.98-24.65ZM144.17,77.11c1.16,4.7,3.01,8.94,5.56,12.7,2.54,3.76,5.86,6.78,9.96,9.05,4.09,2.27,9.07,3.4,14.94,3.4s10.84-1.13,14.94-3.4c4.09-2.27,7.41-5.28,9.96-9.05,2.54-3.76,4.4-7.99,5.56-12.7,1.16-4.7,1.74-9.55,1.74-14.53s-.58-10.23-1.74-15.11c-1.16-4.87-3.02-9.21-5.56-13.03-2.55-3.82-5.87-6.86-9.96-9.13-4.1-2.27-9.08-3.4-14.94-3.4s-10.85,1.14-14.94,3.4c-4.1,2.27-7.42,5.31-9.96,9.13-2.55,3.82-4.4,8.16-5.56,13.03-1.16,4.87-1.74,9.91-1.74,15.11s.58,9.82,1.74,14.53Z"/>
  <path class="st0" d="M270.81,2.82l49.47,79.51h.33V2.82h24.4v118.52h-26.06l-49.3-79.35h-.33v79.35h-24.4V2.82h25.9Z"/>
  <path class="st0" d="M388.64,2.82l49.47,79.51h.33V2.82h24.4v118.52h-26.06l-49.3-79.35h-.33v79.35h-24.4V2.82h25.9Z"/>
  <path class="st0" d="M569.21,2.82v21.91h-62.58v25.4h57.44v20.25h-57.44v29.05h63.91v21.91h-89.97V2.82h88.64Z"/>
  <path class="st0" d="M657.47,34.45c-1.55-2.49-3.49-4.67-5.81-6.56-2.32-1.88-4.95-3.35-7.88-4.4-2.93-1.05-6-1.58-9.21-1.58-5.87,0-10.85,1.14-14.94,3.4-4.1,2.27-7.42,5.31-9.96,9.13-2.55,3.82-4.4,8.16-5.56,13.03-1.16,4.87-1.74,9.91-1.74,15.11s.58,9.82,1.74,14.53c1.16,4.7,3.01,8.94,5.56,12.7,2.54,3.76,5.86,6.78,9.96,9.05,4.09,2.27,9.07,3.4,14.94,3.4,7.97,0,14.19-2.43,18.67-7.3,4.48-4.87,7.22-11.29,8.22-19.26h25.23c-.66,7.42-2.38,14.11-5.15,20.09-2.77,5.98-6.42,11.07-10.96,15.27-4.54,4.21-9.85,7.42-15.94,9.63-6.09,2.21-12.78,3.32-20.09,3.32-9.08,0-17.24-1.58-24.49-4.73-7.25-3.15-13.36-7.5-18.34-13.03-4.98-5.53-8.8-12.04-11.45-19.5-2.66-7.47-3.98-15.52-3.98-24.15s1.33-17.07,3.98-24.65c2.66-7.58,6.47-14.19,11.45-19.84s11.09-10.07,18.34-13.28c7.25-3.21,15.41-4.81,24.49-4.81,6.53,0,12.7.94,18.51,2.82,5.81,1.88,11.01,4.62,15.6,8.22,4.59,3.6,8.38,8.05,11.37,13.36,2.99,5.31,4.87,11.4,5.64,18.26h-25.23c-.44-2.99-1.44-5.73-2.99-8.22Z"/>
  <path class="st0" d="M688.25,24.73V2.82h97.11v21.91h-35.52v96.61h-26.06V24.73h-35.52Z"/>
  <path class="st0" d="M818.29,2.82v118.52h-26.06V2.82h26.06Z"/>
  <path class="st0" d="M834.64,37.93c2.66-7.58,6.47-14.19,11.45-19.84s11.09-10.07,18.34-13.28c7.25-3.21,15.41-4.81,24.49-4.81s17.37,1.61,24.57,4.81c7.19,3.21,13.28,7.64,18.26,13.28s8.8,12.26,11.45,19.84c2.66,7.58,3.98,15.8,3.98,24.65s-1.33,16.68-3.98,24.15c-2.66,7.47-6.47,13.97-11.45,19.5-4.98,5.54-11.07,9.88-18.26,13.03-7.2,3.15-15.38,4.73-24.57,4.73s-17.24-1.58-24.49-4.73c-7.25-3.15-13.36-7.5-18.34-13.03-4.98-5.53-8.8-12.04-11.45-19.5-2.66-7.47-3.98-15.52-3.98-24.15s1.33-17.07,3.98-24.65ZM858.46,77.11c1.16,4.7,3.01,8.94,5.56,12.7,2.54,3.76,5.86,6.78,9.96,9.05,4.09,2.27,9.07,3.4,14.94,3.4s10.84-1.13,14.94-3.4c4.09-2.27,7.41-5.28,9.96-9.05,2.54-3.76,4.4-7.99,5.56-12.7,1.16-4.7,1.74-9.55,1.74-14.53s-.58-10.23-1.74-15.11c-1.16-4.87-3.02-9.21-5.56-13.03-2.55-3.82-5.87-6.86-9.96-9.13-4.1-2.27-9.08-3.4-14.94-3.4s-10.85,1.14-14.94,3.4c-4.1,2.27-7.42,5.31-9.96,9.13-2.55,3.82-4.4,8.16-5.56,13.03-1.16,4.87-1.74,9.91-1.74,15.11s.58,9.82,1.74,14.53Z"/>
  <path class="st0" d="M985.11,2.82l49.47,79.51h.33V2.82h24.4v118.52h-26.06l-49.3-79.35h-.33v79.35h-24.4V2.82h25.9Z"/>
</svg>