<?xml version="1.0" encoding="UTF-8"?>
<svg id="Layer_1" xmlns="http://www.w3.org/2000/svg" version="1.1" viewBox="0 0 898.05 132.3">
  <!-- Generator: Adobe Illustrator 29.3.0, SVG Export Plug-In . SVG Version: 2.1.0 Build 146)  -->
  <defs>
    <style>
      .st0 {
        isolation: isolate;
      }
    </style>
  </defs>
  <path class="st0" d="M88.64,2.82v21.91H26.06v25.4h57.44v20.25H26.06v29.05h63.91v21.91H0V2.82h88.64Z"/>
  <path class="st0" d="M181.77,117.2c-7.86,4.54-17.43,6.81-28.72,6.81-9.08,0-17.24-1.58-24.49-4.73s-13.36-7.5-18.34-13.03c-4.98-5.53-8.8-12.04-11.45-19.5-2.66-7.47-3.98-15.52-3.98-24.15s1.33-17.07,3.98-24.65c2.66-7.58,6.47-14.19,11.45-19.84,4.98-5.64,11.09-10.07,18.34-13.28S143.97.02,153.05.02s17.37,1.61,24.57,4.81c7.19,3.21,13.28,7.64,18.26,13.28s8.8,12.26,11.45,19.84c2.66,7.58,3.98,15.8,3.98,24.65s-1.33,16.66-3.98,24.07c-2.66,7.42-6.47,13.94-11.45,19.59l14.77,13.45-12.12,12.62-16.77-15.11v-.02ZM177.95,89.81c2.21-2.99,3.98-6.69,5.31-11.12,1.33-4.42,1.99-9.79,1.99-16.1,0-5.2-.58-10.24-1.74-15.11-1.16-4.87-3.02-9.21-5.56-13.03-2.55-3.82-5.87-6.86-9.96-9.13-4.1-2.27-9.08-3.4-14.94-3.4s-10.85,1.14-14.94,3.4c-4.1,2.27-7.42,5.31-9.96,9.13-2.55,3.82-4.4,8.16-5.56,13.03-1.16,4.87-1.74,9.91-1.74,15.11s.58,9.82,1.74,14.53c1.16,4.7,3.01,8.94,5.56,12.7,2.54,3.76,5.86,6.78,9.96,9.05,4.09,2.27,9.07,3.4,14.94,3.4,2.76,0,4.87-.11,6.31-.33s2.82-.66,4.15-1.33l-11.12-10.13,12.12-12.95,13.45,12.28h0Z"/>
  <path class="st0" d="M310.42,112.3c-8.96,7.8-21.36,11.7-37.18,11.7s-28.47-3.87-37.27-11.62-13.2-19.7-13.2-35.86V2.82h26.06v73.7c0,3.21.27,6.36.83,9.46.55,3.1,1.71,5.84,3.49,8.22,1.77,2.38,4.23,4.32,7.39,5.81,3.15,1.49,7.39,2.24,12.7,2.24,9.3,0,15.71-2.08,19.26-6.22,3.54-4.15,5.31-10.65,5.31-19.5V2.82h26.06v73.7c0,16.05-4.48,27.97-13.45,35.77h0Z"/>
  <path class="st0" d="M366.69,2.82v118.52h-26.06V2.82h26.06Z"/>
  <path class="st0" d="M410.02,2.82v96.61h57.77v21.91h-83.83V2.82h26.06Z"/>
  <path class="st0" d="M501.15,2.82v118.52h-26.06V2.82h26.06Z"/>
  <path class="st0" d="M574.19,2.82c5.64,0,10.79.5,15.44,1.49,4.65,1,8.63,2.63,11.95,4.9,3.32,2.27,5.89,5.29,7.72,9.05,1.83,3.76,2.74,8.41,2.74,13.94,0,5.98-1.36,10.96-4.07,14.94s-6.72,7.25-12.04,9.79c7.3,2.1,12.75,5.78,16.35,11.04,3.59,5.26,5.39,11.59,5.39,19.01,0,5.98-1.16,11.15-3.49,15.52-2.32,4.37-5.45,7.94-9.38,10.71s-8.41,4.81-13.45,6.14c-5.04,1.33-10.21,1.99-15.52,1.99h-57.44V2.82h55.8ZM570.87,50.8c4.65,0,8.47-1.1,11.45-3.32,2.99-2.21,4.48-5.81,4.48-10.79,0-2.76-.5-5.03-1.49-6.81-1-1.77-2.32-3.15-3.98-4.15s-3.57-1.69-5.73-2.07c-2.16-.39-4.4-.58-6.72-.58h-24.4v27.72h26.39,0ZM572.36,101.09c2.54,0,4.98-.25,7.3-.75s4.37-1.33,6.14-2.49c1.77-1.16,3.18-2.74,4.23-4.73,1.05-1.99,1.58-4.54,1.58-7.64,0-6.08-1.72-10.43-5.15-13.03-3.43-2.6-7.97-3.9-13.61-3.9h-28.39v32.54h27.9Z"/>
  <path class="st0" d="M693.38,2.82c5.31,0,10.1.86,14.36,2.57,4.26,1.72,7.91,4.07,10.96,7.06,3.04,2.99,5.37,6.45,6.97,10.38s2.41,8.16,2.41,12.7c0,6.97-1.47,13-4.4,18.09-2.93,5.09-7.72,8.96-14.36,11.62v.33c3.21.89,5.86,2.24,7.97,4.07,2.1,1.83,3.82,3.98,5.15,6.47s2.29,5.23,2.91,8.22c.61,2.99,1.02,5.98,1.25,8.96.11,1.88.22,4.1.33,6.64.11,2.55.3,5.15.58,7.8.28,2.66.72,5.17,1.33,7.55.61,2.38,1.52,4.4,2.74,6.06h-26.06c-1.44-3.76-2.32-8.24-2.66-13.45-.33-5.2-.83-10.18-1.49-14.94-.89-6.2-2.77-10.73-5.64-13.61-2.88-2.88-7.58-4.32-14.11-4.32h-26.06v46.31h-26.06V2.82h63.91-.03ZM684.08,56.44c5.98,0,10.46-1.33,13.45-3.98,2.99-2.66,4.48-6.97,4.48-12.95s-1.49-9.93-4.48-12.53c-2.99-2.6-7.47-3.9-13.45-3.9h-28.55v33.37h28.55Z"/>
  <path class="st0" d="M769.57,2.82v118.52h-26.06V2.82h26.06Z"/>
  <path class="st0" d="M785.5,37.93c2.66-7.58,6.47-14.19,11.45-19.84,4.98-5.64,11.09-10.07,18.34-13.28S830.7,0,839.78,0s17.37,1.61,24.57,4.81c7.19,3.21,13.28,7.64,18.26,13.28s8.8,12.26,11.45,19.84c2.66,7.58,3.98,15.8,3.98,24.65s-1.33,16.68-3.98,24.15c-2.66,7.47-6.47,13.97-11.45,19.5-4.98,5.54-11.07,9.88-18.26,13.03s-15.38,4.73-24.57,4.73-17.24-1.58-24.49-4.73-13.36-7.5-18.34-13.03c-4.98-5.53-8.8-12.04-11.45-19.5-2.66-7.47-3.98-15.52-3.98-24.15s1.33-17.07,3.98-24.65ZM809.33,77.11c1.16,4.7,3.01,8.94,5.56,12.7,2.54,3.76,5.86,6.78,9.96,9.05,4.09,2.27,9.07,3.4,14.94,3.4s10.84-1.13,14.94-3.4c4.09-2.27,7.41-5.28,9.96-9.05,2.54-3.76,4.4-7.99,5.56-12.7,1.16-4.7,1.74-9.55,1.74-14.53s-.58-10.24-1.74-15.11c-1.16-4.87-3.02-9.21-5.56-13.03-2.55-3.82-5.87-6.86-9.96-9.13s-9.08-3.4-14.94-3.4-10.85,1.14-14.94,3.4c-4.1,2.27-7.42,5.31-9.96,9.13-2.55,3.82-4.4,8.16-5.56,13.03s-1.74,9.91-1.74,15.11.58,9.82,1.74,14.53Z"/>
</svg>