<?xml version="1.0" encoding="UTF-8"?>
<svg id="Layer_1" xmlns="http://www.w3.org/2000/svg" version="1.1" viewBox="0 0 824.95 124.01">
  <!-- Generator: Adobe Illustrator 29.3.0, SVG Export Plug-In . SVG Version: 2.1.0 Build 146)  -->
  <defs>
    <style>
      .st0 {
        fill: #231f20;
      }
    </style>
  </defs>
  <path class="st0" d="M27.41,92.14c1.44,2.77,3.35,5.01,5.73,6.72,2.38,1.72,5.17,2.99,8.38,3.82s6.53,1.24,9.96,1.24c2.32,0,4.81-.19,7.47-.58s5.15-1.13,7.47-2.24c2.32-1.1,4.26-2.63,5.81-4.56,1.55-1.94,2.32-4.4,2.32-7.39,0-3.21-1.02-5.81-3.07-7.8-2.05-1.99-4.73-3.65-8.05-4.98-3.32-1.33-7.08-2.49-11.29-3.49-4.21-1-8.47-2.1-12.78-3.32-4.43-1.1-8.74-2.46-12.95-4.07-4.21-1.6-7.97-3.68-11.29-6.23-3.32-2.54-6-5.73-8.05-9.54-2.05-3.82-3.07-8.44-3.07-13.86,0-6.08,1.3-11.37,3.9-15.85,2.6-4.48,6-8.22,10.21-11.21,4.2-2.99,8.96-5.2,14.28-6.64,5.31-1.44,10.62-2.16,15.94-2.16,6.2,0,12.14.69,17.84,2.08,5.7,1.39,10.76,3.63,15.19,6.72,4.42,3.1,7.94,7.05,10.54,11.87,2.6,4.81,3.9,10.65,3.9,17.51h-25.23c-.22-3.54-.97-6.47-2.24-8.8-1.27-2.32-2.96-4.15-5.06-5.48s-4.51-2.27-7.22-2.82-5.67-.83-8.88-.83c-2.1,0-4.21.22-6.31.66s-4.01,1.22-5.73,2.32c-1.72,1.11-3.13,2.49-4.23,4.15-1.11,1.66-1.66,3.76-1.66,6.31,0,2.32.44,4.21,1.33,5.64.88,1.44,2.63,2.77,5.23,3.98,2.6,1.22,6.2,2.44,10.79,3.65,4.59,1.22,10.6,2.77,18.01,4.65,2.21.44,5.28,1.25,9.21,2.41s7.83,3.02,11.7,5.56c3.87,2.55,7.22,5.95,10.04,10.21s4.23,9.71,4.23,16.35c0,5.42-1.05,10.46-3.15,15.11s-5.23,8.66-9.38,12.04-9.3,6-15.44,7.88-13.25,2.82-21.33,2.82c-6.53,0-12.87-.8-19.01-2.41s-11.57-4.12-16.27-7.55c-4.71-3.43-8.44-7.8-11.21-13.11S-.11,89.3,0,82h25.23c0,3.98.72,7.36,2.16,10.13h0Z"/>
  <path class="st0" d="M100.3,24.74V2.83h97.11v21.91h-35.52v96.62h-26.06V24.75h-35.53Z"/>
  <path class="st0" d="M268.2,2.83c5.31,0,10.1.86,14.36,2.57,4.26,1.72,7.91,4.07,10.96,7.06,3.04,2.99,5.37,6.45,6.97,10.38,1.6,3.93,2.41,8.16,2.41,12.7,0,6.97-1.47,13-4.4,18.09s-7.72,8.96-14.36,11.62v.33c3.21.89,5.86,2.24,7.97,4.07,2.1,1.83,3.82,3.98,5.15,6.47s2.3,5.23,2.9,8.22c.61,2.99,1.02,5.98,1.25,8.96.11,1.88.22,4.1.33,6.64.11,2.55.3,5.15.58,7.8.27,2.66.72,5.17,1.33,7.55.61,2.38,1.52,4.4,2.74,6.06h-26.06c-1.44-3.76-2.32-8.24-2.66-13.45-.33-5.2-.83-10.18-1.49-14.94-.89-6.2-2.77-10.73-5.64-13.61-2.88-2.88-7.58-4.32-14.11-4.32h-26.06v46.31h-26.06V2.82h63.91-.02ZM258.91,56.45c5.98,0,10.46-1.33,13.45-3.98,2.99-2.66,4.48-6.97,4.48-12.95s-1.49-9.93-4.48-12.53c-2.99-2.6-7.47-3.9-13.45-3.9h-28.55v33.37h28.55Z"/>
  <path class="st0" d="M380.98,2.83l44.32,118.53h-27.06l-8.96-26.39h-44.32l-9.3,26.39h-26.23L354.25,2.84h26.73ZM382.47,75.54l-14.94-43.49h-.33l-15.44,43.49s30.71,0,30.71,0Z"/>
  <path class="st0" d="M406.98,24.74V2.83h97.11v21.91h-35.52v96.62h-26.06V24.75h-35.53Z"/>
  <path class="st0" d="M599.62,2.83v21.91h-62.58v25.4h57.44v20.25h-57.44v29.05h63.91v21.91h-89.97V2.83h88.64Z"/>
  <path class="st0" d="M682.07,120.44c-5.64,2.38-11.34,3.57-17.1,3.57-9.08,0-17.24-1.58-24.49-4.73-7.25-3.15-13.36-7.5-18.34-13.03s-8.8-12.04-11.45-19.5c-2.66-7.47-3.98-15.52-3.98-24.15s1.33-17.07,3.98-24.65c2.66-7.58,6.47-14.19,11.45-19.84,4.98-5.64,11.09-10.07,18.34-13.28S655.89.02,664.97.02c6.08,0,11.98.91,17.68,2.74,5.7,1.83,10.84,4.51,15.44,8.05,4.59,3.54,8.38,7.91,11.37,13.11s4.81,11.18,5.48,17.93h-24.9c-1.55-6.64-4.54-11.62-8.96-14.94-4.43-3.32-9.79-4.98-16.1-4.98-5.87,0-10.85,1.14-14.94,3.4-4.1,2.27-7.42,5.31-9.96,9.13-2.55,3.82-4.4,8.16-5.56,13.03s-1.74,9.91-1.74,15.11.58,9.82,1.74,14.53c1.16,4.7,3.01,8.94,5.56,12.7,2.54,3.76,5.86,6.78,9.96,9.05,4.09,2.27,9.07,3.4,14.94,3.4,8.63,0,15.3-2.18,20-6.56,4.7-4.37,7.44-10.71,8.22-19.01h-26.23v-19.42h49.8v64.07h-16.6l-2.66-13.45c-4.65,5.98-9.79,10.15-15.44,12.53h0Z"/>
  <path class="st0" d="M711.4,2.83h29.22l27.72,46.81,27.56-46.81h29.05l-43.99,73.04v45.48h-26.06v-46.15L711.41,2.82h-.01Z"/>
</svg>