<?xml version="1.0" encoding="UTF-8"?>
<svg id="Layer_1" xmlns="http://www.w3.org/2000/svg" version="1.1" viewBox="0 0 946.09 123.99">
  <!-- Generator: Adobe Illustrator 29.3.0, SVG Export Plug-In . SVG Version: 2.1.0 Build 146)  -->
  <defs>
    <style>
      .st0 {
        fill: #231f20;
      }
    </style>
  </defs>
  <path class="st0" d="M26.06,2.82v118.53H0V2.83h26.06Z"/>
  <path class="st0" d="M69.66,2.82l49.47,79.51h.33V2.82h24.4v118.53h-26.06l-49.3-79.35h-.33v79.35h-24.4V2.83h25.9-.01Z"/>
  <path class="st0" d="M187.49,2.82l49.47,79.51h.33V2.82h24.4v118.53h-26.06l-49.3-79.35h-.33v79.35h-24.4V2.83h25.9-.01Z"/>
  <path class="st0" d="M277.78,37.93c2.66-7.58,6.47-14.19,11.45-19.84s11.09-10.07,18.34-13.28c7.25-3.21,15.41-4.81,24.49-4.81s17.37,1.61,24.57,4.81c7.19,3.21,13.28,7.64,18.26,13.28s8.8,12.26,11.45,19.84c2.66,7.58,3.98,15.8,3.98,24.65s-1.33,16.68-3.98,24.15c-2.66,7.47-6.47,13.97-11.45,19.5-4.98,5.54-11.07,9.88-18.26,13.03-7.2,3.15-15.38,4.73-24.57,4.73s-17.24-1.58-24.49-4.73c-7.25-3.15-13.36-7.5-18.34-13.03s-8.8-12.04-11.45-19.5c-2.66-7.47-3.98-15.52-3.98-24.15s1.33-17.07,3.98-24.65ZM301.6,77.11c1.16,4.7,3.01,8.94,5.56,12.7,2.54,3.76,5.86,6.78,9.96,9.05,4.09,2.27,9.07,3.4,14.94,3.4s10.84-1.13,14.94-3.4c4.09-2.27,7.41-5.28,9.96-9.05,2.54-3.76,4.4-7.99,5.56-12.7,1.16-4.7,1.74-9.55,1.74-14.53s-.58-10.23-1.74-15.11c-1.16-4.87-3.02-9.21-5.56-13.03-2.55-3.82-5.87-6.86-9.96-9.13-4.1-2.27-9.08-3.4-14.94-3.4s-10.85,1.14-14.94,3.4c-4.1,2.27-7.42,5.31-9.96,9.13-2.55,3.82-4.4,8.16-5.56,13.03s-1.74,9.91-1.74,15.11.58,9.82,1.74,14.53Z"/>
  <path class="st0" d="M424.42,121.35L386.07,2.83h26.73l26.39,83.33h.33L466.25,2.83h26.89l-39.34,118.52s-29.38,0-29.38,0Z"/>
  <path class="st0" d="M549.04,2.82l44.32,118.52h-27.06l-8.96-26.39h-44.32l-9.3,26.39h-26.23L522.31,2.82h26.73ZM550.53,75.53l-14.94-43.49h-.33l-15.44,43.49s30.71,0,30.71,0Z"/>
  <path class="st0" d="M575.03,24.73V2.82h97.11v21.91h-35.52v96.62h-26.06V24.74h-35.53Z"/>
  <path class="st0" d="M705.07,2.82v118.53h-26.06V2.83h26.06Z"/>
  <path class="st0" d="M721.43,37.93c2.66-7.58,6.47-14.19,11.45-19.84s11.09-10.07,18.34-13.28c7.25-3.21,15.41-4.81,24.49-4.81s17.37,1.61,24.57,4.81c7.19,3.21,13.28,7.64,18.26,13.28s8.8,12.26,11.45,19.84c2.66,7.58,3.98,15.8,3.98,24.65s-1.33,16.68-3.98,24.15c-2.66,7.47-6.47,13.97-11.45,19.5-4.98,5.54-11.07,9.88-18.26,13.03-7.2,3.15-15.38,4.73-24.57,4.73s-17.24-1.58-24.49-4.73c-7.25-3.15-13.36-7.5-18.34-13.03s-8.8-12.04-11.45-19.5c-2.66-7.47-3.98-15.52-3.98-24.15s1.33-17.07,3.98-24.65ZM745.25,77.11c1.16,4.7,3.01,8.94,5.56,12.7,2.54,3.76,5.86,6.78,9.96,9.05,4.09,2.27,9.07,3.4,14.94,3.4s10.84-1.13,14.94-3.4c4.09-2.27,7.41-5.28,9.96-9.05,2.54-3.76,4.4-7.99,5.56-12.7,1.16-4.7,1.74-9.55,1.74-14.53s-.58-10.23-1.74-15.11c-1.16-4.87-3.02-9.21-5.56-13.03-2.55-3.82-5.87-6.86-9.96-9.13-4.1-2.27-9.08-3.4-14.94-3.4s-10.85,1.14-14.94,3.4c-4.1,2.27-7.42,5.31-9.96,9.13-2.55,3.82-4.4,8.16-5.56,13.03s-1.74,9.91-1.74,15.11.58,9.82,1.74,14.53Z"/>
  <path class="st0" d="M871.89,2.82l49.47,79.51h.33V2.82h24.4v118.53h-26.06l-49.3-79.35h-.33v79.35h-24.4V2.83h25.9,0Z"/>
</svg>