<?xml version="1.0" encoding="UTF-8"?>
<svg id="Layer_1" xmlns="http://www.w3.org/2000/svg" version="1.1" viewBox="0 0 974.75 161.19">
  <!-- Generator: Adobe Illustrator 29.3.0, SVG Export Plug-In . SVG Version: 2.1.0 Build 146)  -->
  <defs>
    <style>
      .st0 {
        isolation: isolate;
      }
    </style>
  </defs>
  <path class="st0" d="M26.06,40.01v118.52H0V40.01h26.06Z"/>
  <path class="st0" d="M69.39,40.01l49.47,79.51h.33V40.01h24.4v118.52h-26.06l-49.3-79.35h-.33v79.35h-24.4V40.01h25.9,0Z"/>
  <path class="st0" d="M186.92,40.01l49.47,79.51h.33V40.01h24.4v118.52h-26.06l-49.3-79.35h-.33v79.35h-24.4V40.01h25.9,0Z"/>
  <path class="st0" d="M276.89,75.11c2.66-7.58,6.47-14.19,11.45-19.84s11.09-10.07,18.34-13.28,15.41-4.81,24.49-4.81,17.37,1.61,24.57,4.81c7.19,3.21,13.28,7.64,18.26,13.28s8.8,12.26,11.45,19.84c2.66,7.58,3.98,15.8,3.98,24.65s-1.33,16.68-3.98,24.15c-2.66,7.47-6.47,13.97-11.45,19.5-4.98,5.54-11.07,9.88-18.26,13.03-7.2,3.15-15.38,4.73-24.57,4.73s-17.24-1.58-24.49-4.73-13.36-7.5-18.34-13.03-8.8-12.04-11.45-19.5c-2.66-7.47-3.98-15.52-3.98-24.15s1.33-17.07,3.98-24.65ZM300.71,114.29c1.16,4.7,3.01,8.94,5.56,12.7,2.54,3.76,5.86,6.78,9.96,9.05,4.09,2.27,9.07,3.4,14.94,3.4s10.84-1.13,14.94-3.4c4.09-2.27,7.41-5.28,9.96-9.05,2.54-3.76,4.4-7.99,5.56-12.7,1.16-4.7,1.74-9.55,1.74-14.53s-.58-10.24-1.74-15.11-3.02-9.21-5.56-13.03c-2.55-3.82-5.87-6.86-9.96-9.13-4.1-2.27-9.08-3.4-14.94-3.4s-10.85,1.14-14.94,3.4c-4.1,2.27-7.42,5.31-9.96,9.13-2.55,3.82-4.4,8.16-5.56,13.03-1.16,4.87-1.74,9.91-1.74,15.11s.58,9.82,1.74,14.53Z"/>
  <path class="st0" d="M423.13,158.53l-38.35-118.52h26.73l26.39,83.33h.33l26.73-83.33h26.89l-39.34,118.52h-29.38Z"/>
  <path class="st0" d="M547.46,40.01l44.32,118.52h-27.06l-8.96-26.39h-44.32l-9.3,26.39h-26.23l44.82-118.52h26.73ZM548.96,112.71l-14.94-43.49h-.33l-15.44,43.49s30.71,0,30.71,0Z"/>
  <path class="st0" d="M667.48,71.63c-1.55-2.49-3.49-4.67-5.81-6.56-2.32-1.88-4.95-3.35-7.88-4.4-2.93-1.05-6-1.58-9.21-1.58-5.87,0-10.85,1.14-14.94,3.4-4.1,2.27-7.42,5.31-9.96,9.13-2.55,3.82-4.4,8.16-5.56,13.03-1.16,4.87-1.74,9.91-1.74,15.11s.58,9.82,1.74,14.53c1.16,4.7,3.01,8.94,5.56,12.7,2.54,3.76,5.86,6.78,9.96,9.05,4.09,2.27,9.07,3.4,14.94,3.4,7.97,0,14.19-2.43,18.67-7.3,4.48-4.87,7.22-11.29,8.22-19.26h25.23c-.66,7.42-2.38,14.11-5.15,20.09-2.77,5.98-6.42,11.07-10.96,15.27-4.54,4.21-9.85,7.42-15.94,9.63s-12.78,3.32-20.09,3.32c-9.08,0-17.24-1.58-24.49-4.73s-13.36-7.5-18.34-13.03c-4.98-5.53-8.8-12.04-11.45-19.5-2.66-7.47-3.98-15.52-3.98-24.15s1.33-17.07,3.98-24.65c2.66-7.58,6.47-14.19,11.45-19.84,4.98-5.64,11.09-10.07,18.34-13.28s15.41-4.81,24.49-4.81c6.53,0,12.7.94,18.51,2.82s11.01,4.62,15.6,8.22c4.59,3.6,8.38,8.05,11.37,13.36,2.99,5.31,4.87,11.4,5.64,18.26h-25.23c-.44-2.99-1.44-5.73-2.99-8.22h.02Z"/>
  <path class="st0" d="M734.38,40.01v118.52h-26.06V40.01h26.06Z"/>
  <path class="st0" d="M750.32,75.11c2.66-7.58,6.47-14.19,11.45-19.84,4.98-5.64,11.09-10.07,18.34-13.28s15.41-4.81,24.49-4.81,17.37,1.61,24.57,4.81c7.19,3.21,13.28,7.64,18.26,13.28s8.8,12.26,11.45,19.84c2.66,7.58,3.98,15.8,3.98,24.65s-1.33,16.68-3.98,24.15c-2.66,7.47-6.47,13.97-11.45,19.5-4.98,5.54-11.07,9.88-18.26,13.03s-15.38,4.73-24.57,4.73-17.24-1.58-24.49-4.73-13.36-7.5-18.34-13.03c-4.98-5.53-8.8-12.04-11.45-19.5-2.66-7.47-3.98-15.52-3.98-24.15s1.33-17.07,3.98-24.65ZM774.14,114.29c1.16,4.7,3.01,8.94,5.56,12.7,2.54,3.76,5.86,6.78,9.96,9.05,4.09,2.27,9.07,3.4,14.94,3.4s10.84-1.13,14.94-3.4c4.09-2.27,7.41-5.28,9.96-9.05,2.54-3.76,4.4-7.99,5.56-12.7,1.16-4.7,1.74-9.55,1.74-14.53s-.58-10.24-1.74-15.11-3.02-9.21-5.56-13.03c-2.55-3.82-5.87-6.86-9.96-9.13s-9.08-3.4-14.94-3.4-10.85,1.14-14.94,3.4c-4.1,2.27-7.42,5.31-9.96,9.13-2.55,3.82-4.4,8.16-5.56,13.03-1.16,4.87-1.74,9.91-1.74,15.11s.58,9.82,1.74,14.53ZM808.75,0l-17.6,29.38h16.43l27.06-29.38h-25.9.01Z"/>
  <path class="st0" d="M900.54,40.01l49.47,79.51h.33V40.01h24.4v118.52h-26.06l-49.3-79.35h-.33v79.35h-24.4V40.01h25.9-.01Z"/>
</svg>